%TF.GenerationSoftware,KiCad,Pcbnew,8.0.5*%
%TF.CreationDate,2024-09-28T21:24:11+05:30*%
%TF.ProjectId,555 DICE,35353520-4449-4434-952e-6b696361645f,rev?*%
%TF.SameCoordinates,Original*%
%TF.FileFunction,Legend,Top*%
%TF.FilePolarity,Positive*%
%FSLAX46Y46*%
G04 Gerber Fmt 4.6, Leading zero omitted, Abs format (unit mm)*
G04 Created by KiCad (PCBNEW 8.0.5) date 2024-09-28 21:24:11*
%MOMM*%
%LPD*%
G01*
G04 APERTURE LIST*
%ADD10C,0.150000*%
%ADD11C,0.120000*%
G04 APERTURE END LIST*
D10*
X68928095Y-69584819D02*
X68928095Y-70394342D01*
X68928095Y-70394342D02*
X68975714Y-70489580D01*
X68975714Y-70489580D02*
X69023333Y-70537200D01*
X69023333Y-70537200D02*
X69118571Y-70584819D01*
X69118571Y-70584819D02*
X69309047Y-70584819D01*
X69309047Y-70584819D02*
X69404285Y-70537200D01*
X69404285Y-70537200D02*
X69451904Y-70489580D01*
X69451904Y-70489580D02*
X69499523Y-70394342D01*
X69499523Y-70394342D02*
X69499523Y-69584819D01*
X69928095Y-69680057D02*
X69975714Y-69632438D01*
X69975714Y-69632438D02*
X70070952Y-69584819D01*
X70070952Y-69584819D02*
X70309047Y-69584819D01*
X70309047Y-69584819D02*
X70404285Y-69632438D01*
X70404285Y-69632438D02*
X70451904Y-69680057D01*
X70451904Y-69680057D02*
X70499523Y-69775295D01*
X70499523Y-69775295D02*
X70499523Y-69870533D01*
X70499523Y-69870533D02*
X70451904Y-70013390D01*
X70451904Y-70013390D02*
X69880476Y-70584819D01*
X69880476Y-70584819D02*
X70499523Y-70584819D01*
X90223095Y-75324819D02*
X90223095Y-76134342D01*
X90223095Y-76134342D02*
X90270714Y-76229580D01*
X90270714Y-76229580D02*
X90318333Y-76277200D01*
X90318333Y-76277200D02*
X90413571Y-76324819D01*
X90413571Y-76324819D02*
X90604047Y-76324819D01*
X90604047Y-76324819D02*
X90699285Y-76277200D01*
X90699285Y-76277200D02*
X90746904Y-76229580D01*
X90746904Y-76229580D02*
X90794523Y-76134342D01*
X90794523Y-76134342D02*
X90794523Y-75324819D01*
X91794523Y-76324819D02*
X91223095Y-76324819D01*
X91508809Y-76324819D02*
X91508809Y-75324819D01*
X91508809Y-75324819D02*
X91413571Y-75467676D01*
X91413571Y-75467676D02*
X91318333Y-75562914D01*
X91318333Y-75562914D02*
X91223095Y-75610533D01*
X109407200Y-85333332D02*
X109454819Y-85190475D01*
X109454819Y-85190475D02*
X109454819Y-84952380D01*
X109454819Y-84952380D02*
X109407200Y-84857142D01*
X109407200Y-84857142D02*
X109359580Y-84809523D01*
X109359580Y-84809523D02*
X109264342Y-84761904D01*
X109264342Y-84761904D02*
X109169104Y-84761904D01*
X109169104Y-84761904D02*
X109073866Y-84809523D01*
X109073866Y-84809523D02*
X109026247Y-84857142D01*
X109026247Y-84857142D02*
X108978628Y-84952380D01*
X108978628Y-84952380D02*
X108931009Y-85142856D01*
X108931009Y-85142856D02*
X108883390Y-85238094D01*
X108883390Y-85238094D02*
X108835771Y-85285713D01*
X108835771Y-85285713D02*
X108740533Y-85333332D01*
X108740533Y-85333332D02*
X108645295Y-85333332D01*
X108645295Y-85333332D02*
X108550057Y-85285713D01*
X108550057Y-85285713D02*
X108502438Y-85238094D01*
X108502438Y-85238094D02*
X108454819Y-85142856D01*
X108454819Y-85142856D02*
X108454819Y-84904761D01*
X108454819Y-84904761D02*
X108502438Y-84761904D01*
X108454819Y-84428570D02*
X109454819Y-84190475D01*
X109454819Y-84190475D02*
X108740533Y-83999999D01*
X108740533Y-83999999D02*
X109454819Y-83809523D01*
X109454819Y-83809523D02*
X108454819Y-83571428D01*
X108550057Y-83238094D02*
X108502438Y-83190475D01*
X108502438Y-83190475D02*
X108454819Y-83095237D01*
X108454819Y-83095237D02*
X108454819Y-82857142D01*
X108454819Y-82857142D02*
X108502438Y-82761904D01*
X108502438Y-82761904D02*
X108550057Y-82714285D01*
X108550057Y-82714285D02*
X108645295Y-82666666D01*
X108645295Y-82666666D02*
X108740533Y-82666666D01*
X108740533Y-82666666D02*
X108883390Y-82714285D01*
X108883390Y-82714285D02*
X109454819Y-83285713D01*
X109454819Y-83285713D02*
X109454819Y-82666666D01*
X84824819Y-57666666D02*
X84348628Y-57999999D01*
X84824819Y-58238094D02*
X83824819Y-58238094D01*
X83824819Y-58238094D02*
X83824819Y-57857142D01*
X83824819Y-57857142D02*
X83872438Y-57761904D01*
X83872438Y-57761904D02*
X83920057Y-57714285D01*
X83920057Y-57714285D02*
X84015295Y-57666666D01*
X84015295Y-57666666D02*
X84158152Y-57666666D01*
X84158152Y-57666666D02*
X84253390Y-57714285D01*
X84253390Y-57714285D02*
X84301009Y-57761904D01*
X84301009Y-57761904D02*
X84348628Y-57857142D01*
X84348628Y-57857142D02*
X84348628Y-58238094D01*
X83920057Y-57285713D02*
X83872438Y-57238094D01*
X83872438Y-57238094D02*
X83824819Y-57142856D01*
X83824819Y-57142856D02*
X83824819Y-56904761D01*
X83824819Y-56904761D02*
X83872438Y-56809523D01*
X83872438Y-56809523D02*
X83920057Y-56761904D01*
X83920057Y-56761904D02*
X84015295Y-56714285D01*
X84015295Y-56714285D02*
X84110533Y-56714285D01*
X84110533Y-56714285D02*
X84253390Y-56761904D01*
X84253390Y-56761904D02*
X84824819Y-57333332D01*
X84824819Y-57333332D02*
X84824819Y-56714285D01*
X88584819Y-63666666D02*
X88108628Y-63999999D01*
X88584819Y-64238094D02*
X87584819Y-64238094D01*
X87584819Y-64238094D02*
X87584819Y-63857142D01*
X87584819Y-63857142D02*
X87632438Y-63761904D01*
X87632438Y-63761904D02*
X87680057Y-63714285D01*
X87680057Y-63714285D02*
X87775295Y-63666666D01*
X87775295Y-63666666D02*
X87918152Y-63666666D01*
X87918152Y-63666666D02*
X88013390Y-63714285D01*
X88013390Y-63714285D02*
X88061009Y-63761904D01*
X88061009Y-63761904D02*
X88108628Y-63857142D01*
X88108628Y-63857142D02*
X88108628Y-64238094D01*
X88584819Y-62714285D02*
X88584819Y-63285713D01*
X88584819Y-62999999D02*
X87584819Y-62999999D01*
X87584819Y-62999999D02*
X87727676Y-63095237D01*
X87727676Y-63095237D02*
X87822914Y-63190475D01*
X87822914Y-63190475D02*
X87870533Y-63285713D01*
X42256905Y-76494819D02*
X42256905Y-75494819D01*
X42256905Y-75494819D02*
X42495000Y-75494819D01*
X42495000Y-75494819D02*
X42637857Y-75542438D01*
X42637857Y-75542438D02*
X42733095Y-75637676D01*
X42733095Y-75637676D02*
X42780714Y-75732914D01*
X42780714Y-75732914D02*
X42828333Y-75923390D01*
X42828333Y-75923390D02*
X42828333Y-76066247D01*
X42828333Y-76066247D02*
X42780714Y-76256723D01*
X42780714Y-76256723D02*
X42733095Y-76351961D01*
X42733095Y-76351961D02*
X42637857Y-76447200D01*
X42637857Y-76447200D02*
X42495000Y-76494819D01*
X42495000Y-76494819D02*
X42256905Y-76494819D01*
X43685476Y-75494819D02*
X43495000Y-75494819D01*
X43495000Y-75494819D02*
X43399762Y-75542438D01*
X43399762Y-75542438D02*
X43352143Y-75590057D01*
X43352143Y-75590057D02*
X43256905Y-75732914D01*
X43256905Y-75732914D02*
X43209286Y-75923390D01*
X43209286Y-75923390D02*
X43209286Y-76304342D01*
X43209286Y-76304342D02*
X43256905Y-76399580D01*
X43256905Y-76399580D02*
X43304524Y-76447200D01*
X43304524Y-76447200D02*
X43399762Y-76494819D01*
X43399762Y-76494819D02*
X43590238Y-76494819D01*
X43590238Y-76494819D02*
X43685476Y-76447200D01*
X43685476Y-76447200D02*
X43733095Y-76399580D01*
X43733095Y-76399580D02*
X43780714Y-76304342D01*
X43780714Y-76304342D02*
X43780714Y-76066247D01*
X43780714Y-76066247D02*
X43733095Y-75971009D01*
X43733095Y-75971009D02*
X43685476Y-75923390D01*
X43685476Y-75923390D02*
X43590238Y-75875771D01*
X43590238Y-75875771D02*
X43399762Y-75875771D01*
X43399762Y-75875771D02*
X43304524Y-75923390D01*
X43304524Y-75923390D02*
X43256905Y-75971009D01*
X43256905Y-75971009D02*
X43209286Y-76066247D01*
X41031905Y-57494819D02*
X41031905Y-56494819D01*
X41031905Y-56494819D02*
X41270000Y-56494819D01*
X41270000Y-56494819D02*
X41412857Y-56542438D01*
X41412857Y-56542438D02*
X41508095Y-56637676D01*
X41508095Y-56637676D02*
X41555714Y-56732914D01*
X41555714Y-56732914D02*
X41603333Y-56923390D01*
X41603333Y-56923390D02*
X41603333Y-57066247D01*
X41603333Y-57066247D02*
X41555714Y-57256723D01*
X41555714Y-57256723D02*
X41508095Y-57351961D01*
X41508095Y-57351961D02*
X41412857Y-57447200D01*
X41412857Y-57447200D02*
X41270000Y-57494819D01*
X41270000Y-57494819D02*
X41031905Y-57494819D01*
X42508095Y-56494819D02*
X42031905Y-56494819D01*
X42031905Y-56494819D02*
X41984286Y-56971009D01*
X41984286Y-56971009D02*
X42031905Y-56923390D01*
X42031905Y-56923390D02*
X42127143Y-56875771D01*
X42127143Y-56875771D02*
X42365238Y-56875771D01*
X42365238Y-56875771D02*
X42460476Y-56923390D01*
X42460476Y-56923390D02*
X42508095Y-56971009D01*
X42508095Y-56971009D02*
X42555714Y-57066247D01*
X42555714Y-57066247D02*
X42555714Y-57304342D01*
X42555714Y-57304342D02*
X42508095Y-57399580D01*
X42508095Y-57399580D02*
X42460476Y-57447200D01*
X42460476Y-57447200D02*
X42365238Y-57494819D01*
X42365238Y-57494819D02*
X42127143Y-57494819D01*
X42127143Y-57494819D02*
X42031905Y-57447200D01*
X42031905Y-57447200D02*
X41984286Y-57399580D01*
X52306905Y-86494819D02*
X52306905Y-85494819D01*
X52306905Y-85494819D02*
X52545000Y-85494819D01*
X52545000Y-85494819D02*
X52687857Y-85542438D01*
X52687857Y-85542438D02*
X52783095Y-85637676D01*
X52783095Y-85637676D02*
X52830714Y-85732914D01*
X52830714Y-85732914D02*
X52878333Y-85923390D01*
X52878333Y-85923390D02*
X52878333Y-86066247D01*
X52878333Y-86066247D02*
X52830714Y-86256723D01*
X52830714Y-86256723D02*
X52783095Y-86351961D01*
X52783095Y-86351961D02*
X52687857Y-86447200D01*
X52687857Y-86447200D02*
X52545000Y-86494819D01*
X52545000Y-86494819D02*
X52306905Y-86494819D01*
X53735476Y-85828152D02*
X53735476Y-86494819D01*
X53497381Y-85447200D02*
X53259286Y-86161485D01*
X53259286Y-86161485D02*
X53878333Y-86161485D01*
X57491905Y-78994819D02*
X57491905Y-77994819D01*
X57491905Y-77994819D02*
X57730000Y-77994819D01*
X57730000Y-77994819D02*
X57872857Y-78042438D01*
X57872857Y-78042438D02*
X57968095Y-78137676D01*
X57968095Y-78137676D02*
X58015714Y-78232914D01*
X58015714Y-78232914D02*
X58063333Y-78423390D01*
X58063333Y-78423390D02*
X58063333Y-78566247D01*
X58063333Y-78566247D02*
X58015714Y-78756723D01*
X58015714Y-78756723D02*
X57968095Y-78851961D01*
X57968095Y-78851961D02*
X57872857Y-78947200D01*
X57872857Y-78947200D02*
X57730000Y-78994819D01*
X57730000Y-78994819D02*
X57491905Y-78994819D01*
X58396667Y-77994819D02*
X59015714Y-77994819D01*
X59015714Y-77994819D02*
X58682381Y-78375771D01*
X58682381Y-78375771D02*
X58825238Y-78375771D01*
X58825238Y-78375771D02*
X58920476Y-78423390D01*
X58920476Y-78423390D02*
X58968095Y-78471009D01*
X58968095Y-78471009D02*
X59015714Y-78566247D01*
X59015714Y-78566247D02*
X59015714Y-78804342D01*
X59015714Y-78804342D02*
X58968095Y-78899580D01*
X58968095Y-78899580D02*
X58920476Y-78947200D01*
X58920476Y-78947200D02*
X58825238Y-78994819D01*
X58825238Y-78994819D02*
X58539524Y-78994819D01*
X58539524Y-78994819D02*
X58444286Y-78947200D01*
X58444286Y-78947200D02*
X58396667Y-78899580D01*
X62031905Y-59414819D02*
X62031905Y-58414819D01*
X62031905Y-58414819D02*
X62270000Y-58414819D01*
X62270000Y-58414819D02*
X62412857Y-58462438D01*
X62412857Y-58462438D02*
X62508095Y-58557676D01*
X62508095Y-58557676D02*
X62555714Y-58652914D01*
X62555714Y-58652914D02*
X62603333Y-58843390D01*
X62603333Y-58843390D02*
X62603333Y-58986247D01*
X62603333Y-58986247D02*
X62555714Y-59176723D01*
X62555714Y-59176723D02*
X62508095Y-59271961D01*
X62508095Y-59271961D02*
X62412857Y-59367200D01*
X62412857Y-59367200D02*
X62270000Y-59414819D01*
X62270000Y-59414819D02*
X62031905Y-59414819D01*
X62984286Y-58510057D02*
X63031905Y-58462438D01*
X63031905Y-58462438D02*
X63127143Y-58414819D01*
X63127143Y-58414819D02*
X63365238Y-58414819D01*
X63365238Y-58414819D02*
X63460476Y-58462438D01*
X63460476Y-58462438D02*
X63508095Y-58510057D01*
X63508095Y-58510057D02*
X63555714Y-58605295D01*
X63555714Y-58605295D02*
X63555714Y-58700533D01*
X63555714Y-58700533D02*
X63508095Y-58843390D01*
X63508095Y-58843390D02*
X62936667Y-59414819D01*
X62936667Y-59414819D02*
X63555714Y-59414819D01*
X61256905Y-96994819D02*
X61256905Y-95994819D01*
X61256905Y-95994819D02*
X61495000Y-95994819D01*
X61495000Y-95994819D02*
X61637857Y-96042438D01*
X61637857Y-96042438D02*
X61733095Y-96137676D01*
X61733095Y-96137676D02*
X61780714Y-96232914D01*
X61780714Y-96232914D02*
X61828333Y-96423390D01*
X61828333Y-96423390D02*
X61828333Y-96566247D01*
X61828333Y-96566247D02*
X61780714Y-96756723D01*
X61780714Y-96756723D02*
X61733095Y-96851961D01*
X61733095Y-96851961D02*
X61637857Y-96947200D01*
X61637857Y-96947200D02*
X61495000Y-96994819D01*
X61495000Y-96994819D02*
X61256905Y-96994819D01*
X62780714Y-96994819D02*
X62209286Y-96994819D01*
X62495000Y-96994819D02*
X62495000Y-95994819D01*
X62495000Y-95994819D02*
X62399762Y-96137676D01*
X62399762Y-96137676D02*
X62304524Y-96232914D01*
X62304524Y-96232914D02*
X62209286Y-96280533D01*
X79559580Y-70166666D02*
X79607200Y-70214285D01*
X79607200Y-70214285D02*
X79654819Y-70357142D01*
X79654819Y-70357142D02*
X79654819Y-70452380D01*
X79654819Y-70452380D02*
X79607200Y-70595237D01*
X79607200Y-70595237D02*
X79511961Y-70690475D01*
X79511961Y-70690475D02*
X79416723Y-70738094D01*
X79416723Y-70738094D02*
X79226247Y-70785713D01*
X79226247Y-70785713D02*
X79083390Y-70785713D01*
X79083390Y-70785713D02*
X78892914Y-70738094D01*
X78892914Y-70738094D02*
X78797676Y-70690475D01*
X78797676Y-70690475D02*
X78702438Y-70595237D01*
X78702438Y-70595237D02*
X78654819Y-70452380D01*
X78654819Y-70452380D02*
X78654819Y-70357142D01*
X78654819Y-70357142D02*
X78702438Y-70214285D01*
X78702438Y-70214285D02*
X78750057Y-70166666D01*
X78750057Y-69785713D02*
X78702438Y-69738094D01*
X78702438Y-69738094D02*
X78654819Y-69642856D01*
X78654819Y-69642856D02*
X78654819Y-69404761D01*
X78654819Y-69404761D02*
X78702438Y-69309523D01*
X78702438Y-69309523D02*
X78750057Y-69261904D01*
X78750057Y-69261904D02*
X78845295Y-69214285D01*
X78845295Y-69214285D02*
X78940533Y-69214285D01*
X78940533Y-69214285D02*
X79083390Y-69261904D01*
X79083390Y-69261904D02*
X79654819Y-69833332D01*
X79654819Y-69833332D02*
X79654819Y-69214285D01*
X75904762Y-99977319D02*
X76095238Y-99977319D01*
X76095238Y-99977319D02*
X76190476Y-99929700D01*
X76190476Y-99929700D02*
X76238095Y-99882080D01*
X76238095Y-99882080D02*
X76333333Y-99739223D01*
X76333333Y-99739223D02*
X76380952Y-99548747D01*
X76380952Y-99548747D02*
X76380952Y-99167795D01*
X76380952Y-99167795D02*
X76333333Y-99072557D01*
X76333333Y-99072557D02*
X76285714Y-99024938D01*
X76285714Y-99024938D02*
X76190476Y-98977319D01*
X76190476Y-98977319D02*
X76000000Y-98977319D01*
X76000000Y-98977319D02*
X75904762Y-99024938D01*
X75904762Y-99024938D02*
X75857143Y-99072557D01*
X75857143Y-99072557D02*
X75809524Y-99167795D01*
X75809524Y-99167795D02*
X75809524Y-99405890D01*
X75809524Y-99405890D02*
X75857143Y-99501128D01*
X75857143Y-99501128D02*
X75904762Y-99548747D01*
X75904762Y-99548747D02*
X76000000Y-99596366D01*
X76000000Y-99596366D02*
X76190476Y-99596366D01*
X76190476Y-99596366D02*
X76285714Y-99548747D01*
X76285714Y-99548747D02*
X76333333Y-99501128D01*
X76333333Y-99501128D02*
X76380952Y-99405890D01*
X76666667Y-98977319D02*
X77000000Y-99977319D01*
X77000000Y-99977319D02*
X77333333Y-98977319D01*
X78190476Y-99977319D02*
X77619048Y-99977319D01*
X77904762Y-99977319D02*
X77904762Y-98977319D01*
X77904762Y-98977319D02*
X77809524Y-99120176D01*
X77809524Y-99120176D02*
X77714286Y-99215414D01*
X77714286Y-99215414D02*
X77619048Y-99263033D01*
D11*
%TO.C,U2*%
X67440000Y-71130000D02*
X67440000Y-91570000D01*
X67440000Y-91570000D02*
X71940000Y-91570000D01*
X68690000Y-71130000D02*
X67440000Y-71130000D01*
X71940000Y-71130000D02*
X70690000Y-71130000D01*
X71940000Y-91570000D02*
X71940000Y-71130000D01*
X70690000Y-71130000D02*
G75*
G02*
X68690000Y-71130000I-1000000J0D01*
G01*
%TO.C,U1*%
X88735000Y-76870000D02*
X88735000Y-87150000D01*
X88735000Y-87150000D02*
X93235000Y-87150000D01*
X89985000Y-76870000D02*
X88735000Y-76870000D01*
X93235000Y-76870000D02*
X91985000Y-76870000D01*
X93235000Y-87150000D02*
X93235000Y-76870000D01*
X91985000Y-76870000D02*
G75*
G02*
X89985000Y-76870000I-1000000J0D01*
G01*
%TO.C,SW2*%
X105500000Y-80500000D02*
X104000000Y-80500000D01*
X101500000Y-81750000D02*
X101500000Y-86250000D01*
X108000000Y-86250000D02*
X108000000Y-81750000D01*
X104000000Y-87500000D02*
X105500000Y-87500000D01*
%TO.C,R3*%
X90000000Y-94540000D02*
X90000000Y-95310000D01*
X91370000Y-95310000D02*
X88630000Y-95310000D01*
X88630000Y-95310000D02*
X88630000Y-101850000D01*
X91370000Y-101850000D02*
X91370000Y-95310000D01*
X88630000Y-101850000D02*
X91370000Y-101850000D01*
X90000000Y-102620000D02*
X90000000Y-101850000D01*
%TO.C,R2*%
X82000000Y-53460000D02*
X82000000Y-54230000D01*
X83370000Y-54230000D02*
X80630000Y-54230000D01*
X80630000Y-54230000D02*
X80630000Y-60770000D01*
X83370000Y-60770000D02*
X83370000Y-54230000D01*
X80630000Y-60770000D02*
X83370000Y-60770000D01*
X82000000Y-61540000D02*
X82000000Y-60770000D01*
%TO.C,R1*%
X90500000Y-67540000D02*
X90500000Y-66770000D01*
X89130000Y-66770000D02*
X91870000Y-66770000D01*
X91870000Y-66770000D02*
X91870000Y-60230000D01*
X89130000Y-60230000D02*
X89130000Y-66770000D01*
X91870000Y-60230000D02*
X89130000Y-60230000D01*
X90500000Y-59460000D02*
X90500000Y-60230000D01*
%TO.C,D6*%
X40435000Y-78455000D02*
X40435000Y-81545000D01*
X40435000Y-78455170D02*
G75*
G02*
X45985000Y-80000462I2560000J-1544830D01*
G01*
X45985000Y-79999538D02*
G75*
G02*
X40435000Y-81544830I-2990000J-462D01*
G01*
X45495000Y-80000000D02*
G75*
G02*
X40495000Y-80000000I-2500000J0D01*
G01*
X40495000Y-80000000D02*
G75*
G02*
X45495000Y-80000000I2500000J0D01*
G01*
%TO.C,D5*%
X39210000Y-59455000D02*
X39210000Y-62545000D01*
X39210000Y-59455170D02*
G75*
G02*
X44760000Y-61000462I2560000J-1544830D01*
G01*
X44760000Y-60999538D02*
G75*
G02*
X39210000Y-62544830I-2990000J-462D01*
G01*
X44270000Y-61000000D02*
G75*
G02*
X39270000Y-61000000I-2500000J0D01*
G01*
X39270000Y-61000000D02*
G75*
G02*
X44270000Y-61000000I2500000J0D01*
G01*
%TO.C,D4*%
X50485000Y-88455000D02*
X50485000Y-91545000D01*
X50485000Y-88455170D02*
G75*
G02*
X56035000Y-90000462I2560000J-1544830D01*
G01*
X56035000Y-89999538D02*
G75*
G02*
X50485000Y-91544830I-2990000J-462D01*
G01*
X55545000Y-90000000D02*
G75*
G02*
X50545000Y-90000000I-2500000J0D01*
G01*
X50545000Y-90000000D02*
G75*
G02*
X55545000Y-90000000I2500000J0D01*
G01*
%TO.C,D3*%
X55670000Y-80955000D02*
X55670000Y-84045000D01*
X55670000Y-80955170D02*
G75*
G02*
X61220000Y-82500462I2560000J-1544830D01*
G01*
X61220000Y-82499538D02*
G75*
G02*
X55670000Y-84044830I-2990000J-462D01*
G01*
X60730000Y-82500000D02*
G75*
G02*
X55730000Y-82500000I-2500000J0D01*
G01*
X55730000Y-82500000D02*
G75*
G02*
X60730000Y-82500000I2500000J0D01*
G01*
%TO.C,D2*%
X65330000Y-56545000D02*
X65330000Y-53455000D01*
X65330000Y-56544830D02*
G75*
G02*
X59780000Y-54999538I-2560000J1544830D01*
G01*
X59780000Y-55000462D02*
G75*
G02*
X65330000Y-53455170I2990000J462D01*
G01*
X65270000Y-55000000D02*
G75*
G02*
X60270000Y-55000000I-2500000J0D01*
G01*
X60270000Y-55000000D02*
G75*
G02*
X65270000Y-55000000I2500000J0D01*
G01*
%TO.C,D1*%
X59435000Y-98955000D02*
X59435000Y-102045000D01*
X59435000Y-98955170D02*
G75*
G02*
X64985000Y-100500462I2560000J-1544830D01*
G01*
X64985000Y-100499538D02*
G75*
G02*
X59435000Y-102044830I-2990000J-462D01*
G01*
X64495000Y-100500000D02*
G75*
G02*
X59495000Y-100500000I-2500000J0D01*
G01*
X59495000Y-100500000D02*
G75*
G02*
X64495000Y-100500000I2500000J0D01*
G01*
%TO.C,C2*%
X80330000Y-71820000D02*
X80575000Y-71820000D01*
X80330000Y-71820000D02*
X80330000Y-68180000D01*
X82425000Y-71820000D02*
X82670000Y-71820000D01*
X82670000Y-71820000D02*
X82670000Y-68180000D01*
X80330000Y-68180000D02*
X80575000Y-68180000D01*
X82425000Y-68180000D02*
X82670000Y-68180000D01*
%TO.C,9V1*%
X70890000Y-100612500D02*
X70890000Y-112832500D01*
X70890000Y-109532500D02*
X83110000Y-109532500D01*
X70890000Y-111332500D02*
X70890000Y-109532500D01*
X70890000Y-112832500D02*
X83110000Y-112832500D01*
X73500000Y-112832500D02*
X75500000Y-112832500D01*
X73750000Y-111332500D02*
X73500000Y-112832500D01*
X74200000Y-99812500D02*
X74800000Y-99812500D01*
X74500000Y-100412500D02*
X74200000Y-99812500D01*
X74800000Y-99812500D02*
X74500000Y-100412500D01*
X75250000Y-111332500D02*
X73750000Y-111332500D01*
X75500000Y-112832500D02*
X75250000Y-111332500D01*
X78500000Y-112832500D02*
X80500000Y-112832500D01*
X78750000Y-111332500D02*
X78500000Y-112832500D01*
X80250000Y-111332500D02*
X78750000Y-111332500D01*
X80500000Y-112832500D02*
X80250000Y-111332500D01*
X83110000Y-100612500D02*
X70890000Y-100612500D01*
X83110000Y-109532500D02*
X83110000Y-111332500D01*
X83110000Y-111332500D02*
X70890000Y-111332500D01*
X83110000Y-112832500D02*
X83110000Y-100612500D01*
%TD*%
M02*
