%TF.GenerationSoftware,KiCad,Pcbnew,8.0.5*%
%TF.CreationDate,2024-09-28T21:24:11+05:30*%
%TF.ProjectId,555 DICE,35353520-4449-4434-952e-6b696361645f,rev?*%
%TF.SameCoordinates,Original*%
%TF.FileFunction,Soldermask,Top*%
%TF.FilePolarity,Negative*%
%FSLAX46Y46*%
G04 Gerber Fmt 4.6, Leading zero omitted, Abs format (unit mm)*
G04 Created by KiCad (PCBNEW 8.0.5) date 2024-09-28 21:24:11*
%MOMM*%
%LPD*%
G01*
G04 APERTURE LIST*
G04 Aperture macros list*
%AMRoundRect*
0 Rectangle with rounded corners*
0 $1 Rounding radius*
0 $2 $3 $4 $5 $6 $7 $8 $9 X,Y pos of 4 corners*
0 Add a 4 corners polygon primitive as box body*
4,1,4,$2,$3,$4,$5,$6,$7,$8,$9,$2,$3,0*
0 Add four circle primitives for the rounded corners*
1,1,$1+$1,$2,$3*
1,1,$1+$1,$4,$5*
1,1,$1+$1,$6,$7*
1,1,$1+$1,$8,$9*
0 Add four rect primitives between the rounded corners*
20,1,$1+$1,$2,$3,$4,$5,0*
20,1,$1+$1,$4,$5,$6,$7,0*
20,1,$1+$1,$6,$7,$8,$9,0*
20,1,$1+$1,$8,$9,$2,$3,0*%
G04 Aperture macros list end*
%ADD10R,2.400000X1.600000*%
%ADD11O,2.400000X1.600000*%
%ADD12C,2.000000*%
%ADD13C,1.600000*%
%ADD14O,1.600000X1.600000*%
%ADD15R,1.800000X1.800000*%
%ADD16C,1.800000*%
%ADD17RoundRect,0.250000X-0.750000X-1.550000X0.750000X-1.550000X0.750000X1.550000X-0.750000X1.550000X0*%
%ADD18O,2.000000X3.600000*%
G04 APERTURE END LIST*
D10*
%TO.C,U2*%
X65880000Y-72460000D03*
D11*
X65880000Y-75000000D03*
X65880000Y-77540000D03*
X65880000Y-80080000D03*
X65880000Y-82620000D03*
X65880000Y-85160000D03*
X65880000Y-87700000D03*
X65880000Y-90240000D03*
X73500000Y-90240000D03*
X73500000Y-87700000D03*
X73500000Y-85160000D03*
X73500000Y-82620000D03*
X73500000Y-80080000D03*
X73500000Y-77540000D03*
X73500000Y-75000000D03*
X73500000Y-72460000D03*
%TD*%
D10*
%TO.C,U1*%
X87175000Y-78200000D03*
D11*
X87175000Y-80740000D03*
X87175000Y-83280000D03*
X87175000Y-85820000D03*
X94795000Y-85820000D03*
X94795000Y-83280000D03*
X94795000Y-80740000D03*
X94795000Y-78200000D03*
%TD*%
D12*
%TO.C,SW2*%
X107000000Y-80750000D03*
X107000000Y-87250000D03*
X102500000Y-80750000D03*
X102500000Y-87250000D03*
%TD*%
D13*
%TO.C,R3*%
X90000000Y-93500000D03*
D14*
X90000000Y-103660000D03*
%TD*%
D13*
%TO.C,R2*%
X82000000Y-52420000D03*
D14*
X82000000Y-62580000D03*
%TD*%
D13*
%TO.C,R1*%
X90500000Y-68580000D03*
D14*
X90500000Y-58420000D03*
%TD*%
D15*
%TO.C,D6*%
X41725000Y-80000000D03*
D16*
X44265000Y-80000000D03*
%TD*%
D15*
%TO.C,D5*%
X40500000Y-61000000D03*
D16*
X43040000Y-61000000D03*
%TD*%
D15*
%TO.C,D4*%
X51775000Y-90000000D03*
D16*
X54315000Y-90000000D03*
%TD*%
D15*
%TO.C,D3*%
X56960000Y-82500000D03*
D16*
X59500000Y-82500000D03*
%TD*%
D15*
%TO.C,D2*%
X64040000Y-55000000D03*
D16*
X61500000Y-55000000D03*
%TD*%
D15*
%TO.C,D1*%
X60725000Y-100500000D03*
D16*
X63265000Y-100500000D03*
%TD*%
D13*
%TO.C,C2*%
X81500000Y-71250000D03*
X81500000Y-68750000D03*
%TD*%
D17*
%TO.C,9V1*%
X74500000Y-102722500D03*
D18*
X79500000Y-102722500D03*
%TD*%
M02*
