M48
; DRILL file {KiCad 8.0.5} date 2024-09-28T21:24:16+0530
; FORMAT={-:-/ absolute / inch / decimal}
; #@! TF.CreationDate,2024-09-28T21:24:16+05:30
; #@! TF.GenerationSoftware,Kicad,Pcbnew,8.0.5
; #@! TF.FileFunction,Plated,1,2,PTH
FMAT,2
INCH
; #@! TA.AperFunction,Plated,PTH,ComponentDrill
T1C0.0315
; #@! TA.AperFunction,Plated,PTH,ComponentDrill
T2C0.0354
; #@! TA.AperFunction,Plated,PTH,ComponentDrill
T3C0.0433
; #@! TA.AperFunction,Plated,PTH,ComponentDrill
T4C0.0551
%
G90
G05
T1
X2.5937Y-2.8528
X2.5937Y-2.9528
X2.5937Y-3.0528
X2.5937Y-3.1528
X2.5937Y-3.2528
X2.5937Y-3.3528
X2.5937Y-3.4528
X2.5937Y-3.5528
X2.8937Y-2.8528
X2.8937Y-2.9528
X2.8937Y-3.0528
X2.8937Y-3.1528
X2.8937Y-3.2528
X2.8937Y-3.3528
X2.8937Y-3.4528
X2.8937Y-3.5528
X3.2087Y-2.7067
X3.2087Y-2.8051
X3.2283Y-2.0638
X3.2283Y-2.4638
X3.4321Y-3.0787
X3.4321Y-3.1787
X3.4321Y-3.2787
X3.4321Y-3.3787
X3.5433Y-3.6811
X3.5433Y-4.0811
X3.563Y-2.3
X3.563Y-2.7
X3.7321Y-3.0787
X3.7321Y-3.1787
X3.7321Y-3.2787
X3.7321Y-3.3787
T2
X1.5945Y-2.4016
X1.6427Y-3.1496
X1.6945Y-2.4016
X1.7427Y-3.1496
X2.0384Y-3.5433
X2.1384Y-3.5433
X2.2425Y-3.248
X2.3425Y-3.248
X2.3907Y-3.9567
X2.4213Y-2.1654
X2.4907Y-3.9567
X2.5213Y-2.1654
T3
X4.0354Y-3.1791
X4.0354Y-3.435
X4.2126Y-3.1791
X4.2126Y-3.435
T4
X2.9331Y-4.0442
X3.1299Y-4.0442
M30
