%TF.GenerationSoftware,KiCad,Pcbnew,8.0.5*%
%TF.CreationDate,2024-09-28T21:24:17+05:30*%
%TF.ProjectId,555 DICE,35353520-4449-4434-952e-6b696361645f,rev?*%
%TF.SameCoordinates,Original*%
%TF.FileFunction,Drillmap*%
%TF.FilePolarity,Positive*%
%FSLAX45Y45*%
G04 Gerber Fmt 4.5, Leading zero omitted, Abs format (unit mm)*
G04 Created by KiCad (PCBNEW 8.0.5) date 2024-09-28 21:24:17*
%MOMM*%
%LPD*%
G01*
G04 APERTURE LIST*
%ADD10C,0.050000*%
%ADD11C,0.200000*%
%ADD12C,0.100000*%
%ADD13C,0.110000*%
%ADD14C,0.140000*%
G04 APERTURE END LIST*
D10*
X2700000Y-4450000D02*
X11400000Y-4450000D01*
X11400000Y-11550000D01*
X2700000Y-11550000D01*
X2700000Y-4450000D01*
D11*
D12*
X6548000Y-7206000D02*
X6628000Y-7286000D01*
X6628000Y-7206000D02*
X6548000Y-7286000D01*
X6548000Y-7460000D02*
X6628000Y-7540000D01*
X6628000Y-7460000D02*
X6548000Y-7540000D01*
X6548000Y-7714000D02*
X6628000Y-7794000D01*
X6628000Y-7714000D02*
X6548000Y-7794000D01*
X6548000Y-7968000D02*
X6628000Y-8048000D01*
X6628000Y-7968000D02*
X6548000Y-8048000D01*
X6548000Y-8222000D02*
X6628000Y-8302000D01*
X6628000Y-8222000D02*
X6548000Y-8302000D01*
X6548000Y-8476000D02*
X6628000Y-8556000D01*
X6628000Y-8476000D02*
X6548000Y-8556000D01*
X6548000Y-8730000D02*
X6628000Y-8810000D01*
X6628000Y-8730000D02*
X6548000Y-8810000D01*
X6548000Y-8984000D02*
X6628000Y-9064000D01*
X6628000Y-8984000D02*
X6548000Y-9064000D01*
X7310000Y-7206000D02*
X7390000Y-7286000D01*
X7390000Y-7206000D02*
X7310000Y-7286000D01*
X7310000Y-7460000D02*
X7390000Y-7540000D01*
X7390000Y-7460000D02*
X7310000Y-7540000D01*
X7310000Y-7714000D02*
X7390000Y-7794000D01*
X7390000Y-7714000D02*
X7310000Y-7794000D01*
X7310000Y-7968000D02*
X7390000Y-8048000D01*
X7390000Y-7968000D02*
X7310000Y-8048000D01*
X7310000Y-8222000D02*
X7390000Y-8302000D01*
X7390000Y-8222000D02*
X7310000Y-8302000D01*
X7310000Y-8476000D02*
X7390000Y-8556000D01*
X7390000Y-8476000D02*
X7310000Y-8556000D01*
X7310000Y-8730000D02*
X7390000Y-8810000D01*
X7390000Y-8730000D02*
X7310000Y-8810000D01*
X7310000Y-8984000D02*
X7390000Y-9064000D01*
X7390000Y-8984000D02*
X7310000Y-9064000D01*
X8110000Y-6835000D02*
X8190000Y-6915000D01*
X8190000Y-6835000D02*
X8110000Y-6915000D01*
X8110000Y-7085000D02*
X8190000Y-7165000D01*
X8190000Y-7085000D02*
X8110000Y-7165000D01*
X8160000Y-5202000D02*
X8240000Y-5282000D01*
X8240000Y-5202000D02*
X8160000Y-5282000D01*
X8160000Y-6218000D02*
X8240000Y-6298000D01*
X8240000Y-6218000D02*
X8160000Y-6298000D01*
X8677500Y-7780000D02*
X8757500Y-7860000D01*
X8757500Y-7780000D02*
X8677500Y-7860000D01*
X8677500Y-8034000D02*
X8757500Y-8114000D01*
X8757500Y-8034000D02*
X8677500Y-8114000D01*
X8677500Y-8288000D02*
X8757500Y-8368000D01*
X8757500Y-8288000D02*
X8677500Y-8368000D01*
X8677500Y-8542000D02*
X8757500Y-8622000D01*
X8757500Y-8542000D02*
X8677500Y-8622000D01*
X8960000Y-9310000D02*
X9040000Y-9390000D01*
X9040000Y-9310000D02*
X8960000Y-9390000D01*
X8960000Y-10326000D02*
X9040000Y-10406000D01*
X9040000Y-10326000D02*
X8960000Y-10406000D01*
X9010000Y-5802000D02*
X9090000Y-5882000D01*
X9090000Y-5802000D02*
X9010000Y-5882000D01*
X9010000Y-6818000D02*
X9090000Y-6898000D01*
X9090000Y-6818000D02*
X9010000Y-6898000D01*
X9439500Y-7780000D02*
X9519500Y-7860000D01*
X9519500Y-7780000D02*
X9439500Y-7860000D01*
X9439500Y-8034000D02*
X9519500Y-8114000D01*
X9519500Y-8034000D02*
X9439500Y-8114000D01*
X9439500Y-8288000D02*
X9519500Y-8368000D01*
X9519500Y-8288000D02*
X9439500Y-8368000D01*
X9439500Y-8542000D02*
X9519500Y-8622000D01*
X9519500Y-8542000D02*
X9439500Y-8622000D01*
X4095000Y-6100000D02*
G75*
G02*
X4005000Y-6100000I-45000J0D01*
G01*
X4005000Y-6100000D02*
G75*
G02*
X4095000Y-6100000I45000J0D01*
G01*
X4217500Y-8000000D02*
G75*
G02*
X4127500Y-8000000I-45000J0D01*
G01*
X4127500Y-8000000D02*
G75*
G02*
X4217500Y-8000000I45000J0D01*
G01*
X4349000Y-6100000D02*
G75*
G02*
X4259000Y-6100000I-45000J0D01*
G01*
X4259000Y-6100000D02*
G75*
G02*
X4349000Y-6100000I45000J0D01*
G01*
X4471500Y-8000000D02*
G75*
G02*
X4381500Y-8000000I-45000J0D01*
G01*
X4381500Y-8000000D02*
G75*
G02*
X4471500Y-8000000I45000J0D01*
G01*
X5222500Y-9000000D02*
G75*
G02*
X5132500Y-9000000I-45000J0D01*
G01*
X5132500Y-9000000D02*
G75*
G02*
X5222500Y-9000000I45000J0D01*
G01*
X5476500Y-9000000D02*
G75*
G02*
X5386500Y-9000000I-45000J0D01*
G01*
X5386500Y-9000000D02*
G75*
G02*
X5476500Y-9000000I45000J0D01*
G01*
X5741000Y-8250000D02*
G75*
G02*
X5651000Y-8250000I-45000J0D01*
G01*
X5651000Y-8250000D02*
G75*
G02*
X5741000Y-8250000I45000J0D01*
G01*
X5995000Y-8250000D02*
G75*
G02*
X5905000Y-8250000I-45000J0D01*
G01*
X5905000Y-8250000D02*
G75*
G02*
X5995000Y-8250000I45000J0D01*
G01*
X6117500Y-10050000D02*
G75*
G02*
X6027500Y-10050000I-45000J0D01*
G01*
X6027500Y-10050000D02*
G75*
G02*
X6117500Y-10050000I45000J0D01*
G01*
X6195000Y-5500000D02*
G75*
G02*
X6105000Y-5500000I-45000J0D01*
G01*
X6105000Y-5500000D02*
G75*
G02*
X6195000Y-5500000I45000J0D01*
G01*
X6371500Y-10050000D02*
G75*
G02*
X6281500Y-10050000I-45000J0D01*
G01*
X6281500Y-10050000D02*
G75*
G02*
X6371500Y-10050000I45000J0D01*
G01*
X6449000Y-5500000D02*
G75*
G02*
X6359000Y-5500000I-45000J0D01*
G01*
X6359000Y-5500000D02*
G75*
G02*
X6449000Y-5500000I45000J0D01*
G01*
D13*
X10250000Y-8020000D02*
X10250000Y-8130000D01*
X10195000Y-8075000D02*
X10305000Y-8075000D01*
X10250000Y-8670000D02*
X10250000Y-8780000D01*
X10195000Y-8725000D02*
X10305000Y-8725000D01*
X10700000Y-8020000D02*
X10700000Y-8130000D01*
X10645000Y-8075000D02*
X10755000Y-8075000D01*
X10700000Y-8670000D02*
X10700000Y-8780000D01*
X10645000Y-8725000D02*
X10755000Y-8725000D01*
D14*
X7499498Y-10321748D02*
X7499498Y-10222752D01*
X7400502Y-10222752D01*
X7400502Y-10321748D01*
X7499498Y-10321748D01*
X7999498Y-10321748D02*
X7999498Y-10222752D01*
X7900502Y-10222752D01*
X7900502Y-10321748D01*
X7999498Y-10321748D01*
D11*
X2958277Y-11863984D02*
X2958277Y-11663984D01*
X2958277Y-11663984D02*
X3005896Y-11663984D01*
X3005896Y-11663984D02*
X3034467Y-11673508D01*
X3034467Y-11673508D02*
X3053515Y-11692555D01*
X3053515Y-11692555D02*
X3063039Y-11711603D01*
X3063039Y-11711603D02*
X3072562Y-11749698D01*
X3072562Y-11749698D02*
X3072562Y-11778269D01*
X3072562Y-11778269D02*
X3063039Y-11816365D01*
X3063039Y-11816365D02*
X3053515Y-11835412D01*
X3053515Y-11835412D02*
X3034467Y-11854460D01*
X3034467Y-11854460D02*
X3005896Y-11863984D01*
X3005896Y-11863984D02*
X2958277Y-11863984D01*
X3158277Y-11863984D02*
X3158277Y-11730650D01*
X3158277Y-11768746D02*
X3167801Y-11749698D01*
X3167801Y-11749698D02*
X3177324Y-11740174D01*
X3177324Y-11740174D02*
X3196372Y-11730650D01*
X3196372Y-11730650D02*
X3215420Y-11730650D01*
X3282086Y-11863984D02*
X3282086Y-11730650D01*
X3282086Y-11663984D02*
X3272562Y-11673508D01*
X3272562Y-11673508D02*
X3282086Y-11683031D01*
X3282086Y-11683031D02*
X3291610Y-11673508D01*
X3291610Y-11673508D02*
X3282086Y-11663984D01*
X3282086Y-11663984D02*
X3282086Y-11683031D01*
X3405896Y-11863984D02*
X3386848Y-11854460D01*
X3386848Y-11854460D02*
X3377324Y-11835412D01*
X3377324Y-11835412D02*
X3377324Y-11663984D01*
X3510658Y-11863984D02*
X3491610Y-11854460D01*
X3491610Y-11854460D02*
X3482086Y-11835412D01*
X3482086Y-11835412D02*
X3482086Y-11663984D01*
X3739229Y-11863984D02*
X3739229Y-11663984D01*
X3739229Y-11663984D02*
X3805896Y-11806841D01*
X3805896Y-11806841D02*
X3872562Y-11663984D01*
X3872562Y-11663984D02*
X3872562Y-11863984D01*
X4053515Y-11863984D02*
X4053515Y-11759222D01*
X4053515Y-11759222D02*
X4043991Y-11740174D01*
X4043991Y-11740174D02*
X4024943Y-11730650D01*
X4024943Y-11730650D02*
X3986848Y-11730650D01*
X3986848Y-11730650D02*
X3967801Y-11740174D01*
X4053515Y-11854460D02*
X4034467Y-11863984D01*
X4034467Y-11863984D02*
X3986848Y-11863984D01*
X3986848Y-11863984D02*
X3967801Y-11854460D01*
X3967801Y-11854460D02*
X3958277Y-11835412D01*
X3958277Y-11835412D02*
X3958277Y-11816365D01*
X3958277Y-11816365D02*
X3967801Y-11797317D01*
X3967801Y-11797317D02*
X3986848Y-11787793D01*
X3986848Y-11787793D02*
X4034467Y-11787793D01*
X4034467Y-11787793D02*
X4053515Y-11778269D01*
X4148753Y-11730650D02*
X4148753Y-11930650D01*
X4148753Y-11740174D02*
X4167801Y-11730650D01*
X4167801Y-11730650D02*
X4205896Y-11730650D01*
X4205896Y-11730650D02*
X4224944Y-11740174D01*
X4224944Y-11740174D02*
X4234467Y-11749698D01*
X4234467Y-11749698D02*
X4243991Y-11768746D01*
X4243991Y-11768746D02*
X4243991Y-11825888D01*
X4243991Y-11825888D02*
X4234467Y-11844936D01*
X4234467Y-11844936D02*
X4224944Y-11854460D01*
X4224944Y-11854460D02*
X4205896Y-11863984D01*
X4205896Y-11863984D02*
X4167801Y-11863984D01*
X4167801Y-11863984D02*
X4148753Y-11854460D01*
X4329705Y-11844936D02*
X4339229Y-11854460D01*
X4339229Y-11854460D02*
X4329705Y-11863984D01*
X4329705Y-11863984D02*
X4320182Y-11854460D01*
X4320182Y-11854460D02*
X4329705Y-11844936D01*
X4329705Y-11844936D02*
X4329705Y-11863984D01*
X4329705Y-11740174D02*
X4339229Y-11749698D01*
X4339229Y-11749698D02*
X4329705Y-11759222D01*
X4329705Y-11759222D02*
X4320182Y-11749698D01*
X4320182Y-11749698D02*
X4329705Y-11740174D01*
X4329705Y-11740174D02*
X4329705Y-11759222D01*
D12*
X2617500Y-12152500D02*
X2697500Y-12232500D01*
X2697500Y-12152500D02*
X2617500Y-12232500D01*
D11*
X2996372Y-12083984D02*
X3015420Y-12083984D01*
X3015420Y-12083984D02*
X3034467Y-12093508D01*
X3034467Y-12093508D02*
X3043991Y-12103031D01*
X3043991Y-12103031D02*
X3053515Y-12122079D01*
X3053515Y-12122079D02*
X3063039Y-12160174D01*
X3063039Y-12160174D02*
X3063039Y-12207793D01*
X3063039Y-12207793D02*
X3053515Y-12245888D01*
X3053515Y-12245888D02*
X3043991Y-12264936D01*
X3043991Y-12264936D02*
X3034467Y-12274460D01*
X3034467Y-12274460D02*
X3015420Y-12283984D01*
X3015420Y-12283984D02*
X2996372Y-12283984D01*
X2996372Y-12283984D02*
X2977324Y-12274460D01*
X2977324Y-12274460D02*
X2967801Y-12264936D01*
X2967801Y-12264936D02*
X2958277Y-12245888D01*
X2958277Y-12245888D02*
X2948753Y-12207793D01*
X2948753Y-12207793D02*
X2948753Y-12160174D01*
X2948753Y-12160174D02*
X2958277Y-12122079D01*
X2958277Y-12122079D02*
X2967801Y-12103031D01*
X2967801Y-12103031D02*
X2977324Y-12093508D01*
X2977324Y-12093508D02*
X2996372Y-12083984D01*
X3148753Y-12264936D02*
X3158277Y-12274460D01*
X3158277Y-12274460D02*
X3148753Y-12283984D01*
X3148753Y-12283984D02*
X3139229Y-12274460D01*
X3139229Y-12274460D02*
X3148753Y-12264936D01*
X3148753Y-12264936D02*
X3148753Y-12283984D01*
X3272562Y-12169698D02*
X3253515Y-12160174D01*
X3253515Y-12160174D02*
X3243991Y-12150650D01*
X3243991Y-12150650D02*
X3234467Y-12131603D01*
X3234467Y-12131603D02*
X3234467Y-12122079D01*
X3234467Y-12122079D02*
X3243991Y-12103031D01*
X3243991Y-12103031D02*
X3253515Y-12093508D01*
X3253515Y-12093508D02*
X3272562Y-12083984D01*
X3272562Y-12083984D02*
X3310658Y-12083984D01*
X3310658Y-12083984D02*
X3329705Y-12093508D01*
X3329705Y-12093508D02*
X3339229Y-12103031D01*
X3339229Y-12103031D02*
X3348753Y-12122079D01*
X3348753Y-12122079D02*
X3348753Y-12131603D01*
X3348753Y-12131603D02*
X3339229Y-12150650D01*
X3339229Y-12150650D02*
X3329705Y-12160174D01*
X3329705Y-12160174D02*
X3310658Y-12169698D01*
X3310658Y-12169698D02*
X3272562Y-12169698D01*
X3272562Y-12169698D02*
X3253515Y-12179222D01*
X3253515Y-12179222D02*
X3243991Y-12188746D01*
X3243991Y-12188746D02*
X3234467Y-12207793D01*
X3234467Y-12207793D02*
X3234467Y-12245888D01*
X3234467Y-12245888D02*
X3243991Y-12264936D01*
X3243991Y-12264936D02*
X3253515Y-12274460D01*
X3253515Y-12274460D02*
X3272562Y-12283984D01*
X3272562Y-12283984D02*
X3310658Y-12283984D01*
X3310658Y-12283984D02*
X3329705Y-12274460D01*
X3329705Y-12274460D02*
X3339229Y-12264936D01*
X3339229Y-12264936D02*
X3348753Y-12245888D01*
X3348753Y-12245888D02*
X3348753Y-12207793D01*
X3348753Y-12207793D02*
X3339229Y-12188746D01*
X3339229Y-12188746D02*
X3329705Y-12179222D01*
X3329705Y-12179222D02*
X3310658Y-12169698D01*
X3472562Y-12083984D02*
X3491610Y-12083984D01*
X3491610Y-12083984D02*
X3510658Y-12093508D01*
X3510658Y-12093508D02*
X3520182Y-12103031D01*
X3520182Y-12103031D02*
X3529705Y-12122079D01*
X3529705Y-12122079D02*
X3539229Y-12160174D01*
X3539229Y-12160174D02*
X3539229Y-12207793D01*
X3539229Y-12207793D02*
X3529705Y-12245888D01*
X3529705Y-12245888D02*
X3520182Y-12264936D01*
X3520182Y-12264936D02*
X3510658Y-12274460D01*
X3510658Y-12274460D02*
X3491610Y-12283984D01*
X3491610Y-12283984D02*
X3472562Y-12283984D01*
X3472562Y-12283984D02*
X3453515Y-12274460D01*
X3453515Y-12274460D02*
X3443991Y-12264936D01*
X3443991Y-12264936D02*
X3434467Y-12245888D01*
X3434467Y-12245888D02*
X3424943Y-12207793D01*
X3424943Y-12207793D02*
X3424943Y-12160174D01*
X3424943Y-12160174D02*
X3434467Y-12122079D01*
X3434467Y-12122079D02*
X3443991Y-12103031D01*
X3443991Y-12103031D02*
X3453515Y-12093508D01*
X3453515Y-12093508D02*
X3472562Y-12083984D01*
X3663039Y-12083984D02*
X3682086Y-12083984D01*
X3682086Y-12083984D02*
X3701134Y-12093508D01*
X3701134Y-12093508D02*
X3710658Y-12103031D01*
X3710658Y-12103031D02*
X3720182Y-12122079D01*
X3720182Y-12122079D02*
X3729705Y-12160174D01*
X3729705Y-12160174D02*
X3729705Y-12207793D01*
X3729705Y-12207793D02*
X3720182Y-12245888D01*
X3720182Y-12245888D02*
X3710658Y-12264936D01*
X3710658Y-12264936D02*
X3701134Y-12274460D01*
X3701134Y-12274460D02*
X3682086Y-12283984D01*
X3682086Y-12283984D02*
X3663039Y-12283984D01*
X3663039Y-12283984D02*
X3643991Y-12274460D01*
X3643991Y-12274460D02*
X3634467Y-12264936D01*
X3634467Y-12264936D02*
X3624943Y-12245888D01*
X3624943Y-12245888D02*
X3615420Y-12207793D01*
X3615420Y-12207793D02*
X3615420Y-12160174D01*
X3615420Y-12160174D02*
X3624943Y-12122079D01*
X3624943Y-12122079D02*
X3634467Y-12103031D01*
X3634467Y-12103031D02*
X3643991Y-12093508D01*
X3643991Y-12093508D02*
X3663039Y-12083984D01*
X3815420Y-12283984D02*
X3815420Y-12150650D01*
X3815420Y-12169698D02*
X3824943Y-12160174D01*
X3824943Y-12160174D02*
X3843991Y-12150650D01*
X3843991Y-12150650D02*
X3872563Y-12150650D01*
X3872563Y-12150650D02*
X3891610Y-12160174D01*
X3891610Y-12160174D02*
X3901134Y-12179222D01*
X3901134Y-12179222D02*
X3901134Y-12283984D01*
X3901134Y-12179222D02*
X3910658Y-12160174D01*
X3910658Y-12160174D02*
X3929705Y-12150650D01*
X3929705Y-12150650D02*
X3958277Y-12150650D01*
X3958277Y-12150650D02*
X3977324Y-12160174D01*
X3977324Y-12160174D02*
X3986848Y-12179222D01*
X3986848Y-12179222D02*
X3986848Y-12283984D01*
X4082086Y-12283984D02*
X4082086Y-12150650D01*
X4082086Y-12169698D02*
X4091610Y-12160174D01*
X4091610Y-12160174D02*
X4110658Y-12150650D01*
X4110658Y-12150650D02*
X4139229Y-12150650D01*
X4139229Y-12150650D02*
X4158277Y-12160174D01*
X4158277Y-12160174D02*
X4167801Y-12179222D01*
X4167801Y-12179222D02*
X4167801Y-12283984D01*
X4167801Y-12179222D02*
X4177324Y-12160174D01*
X4177324Y-12160174D02*
X4196372Y-12150650D01*
X4196372Y-12150650D02*
X4224944Y-12150650D01*
X4224944Y-12150650D02*
X4243991Y-12160174D01*
X4243991Y-12160174D02*
X4253515Y-12179222D01*
X4253515Y-12179222D02*
X4253515Y-12283984D01*
X4643991Y-12074460D02*
X4472563Y-12331603D01*
X4901134Y-12083984D02*
X4920182Y-12083984D01*
X4920182Y-12083984D02*
X4939229Y-12093508D01*
X4939229Y-12093508D02*
X4948753Y-12103031D01*
X4948753Y-12103031D02*
X4958277Y-12122079D01*
X4958277Y-12122079D02*
X4967801Y-12160174D01*
X4967801Y-12160174D02*
X4967801Y-12207793D01*
X4967801Y-12207793D02*
X4958277Y-12245888D01*
X4958277Y-12245888D02*
X4948753Y-12264936D01*
X4948753Y-12264936D02*
X4939229Y-12274460D01*
X4939229Y-12274460D02*
X4920182Y-12283984D01*
X4920182Y-12283984D02*
X4901134Y-12283984D01*
X4901134Y-12283984D02*
X4882087Y-12274460D01*
X4882087Y-12274460D02*
X4872563Y-12264936D01*
X4872563Y-12264936D02*
X4863039Y-12245888D01*
X4863039Y-12245888D02*
X4853515Y-12207793D01*
X4853515Y-12207793D02*
X4853515Y-12160174D01*
X4853515Y-12160174D02*
X4863039Y-12122079D01*
X4863039Y-12122079D02*
X4872563Y-12103031D01*
X4872563Y-12103031D02*
X4882087Y-12093508D01*
X4882087Y-12093508D02*
X4901134Y-12083984D01*
X5053515Y-12264936D02*
X5063039Y-12274460D01*
X5063039Y-12274460D02*
X5053515Y-12283984D01*
X5053515Y-12283984D02*
X5043991Y-12274460D01*
X5043991Y-12274460D02*
X5053515Y-12264936D01*
X5053515Y-12264936D02*
X5053515Y-12283984D01*
X5186848Y-12083984D02*
X5205896Y-12083984D01*
X5205896Y-12083984D02*
X5224944Y-12093508D01*
X5224944Y-12093508D02*
X5234468Y-12103031D01*
X5234468Y-12103031D02*
X5243991Y-12122079D01*
X5243991Y-12122079D02*
X5253515Y-12160174D01*
X5253515Y-12160174D02*
X5253515Y-12207793D01*
X5253515Y-12207793D02*
X5243991Y-12245888D01*
X5243991Y-12245888D02*
X5234468Y-12264936D01*
X5234468Y-12264936D02*
X5224944Y-12274460D01*
X5224944Y-12274460D02*
X5205896Y-12283984D01*
X5205896Y-12283984D02*
X5186848Y-12283984D01*
X5186848Y-12283984D02*
X5167801Y-12274460D01*
X5167801Y-12274460D02*
X5158277Y-12264936D01*
X5158277Y-12264936D02*
X5148753Y-12245888D01*
X5148753Y-12245888D02*
X5139229Y-12207793D01*
X5139229Y-12207793D02*
X5139229Y-12160174D01*
X5139229Y-12160174D02*
X5148753Y-12122079D01*
X5148753Y-12122079D02*
X5158277Y-12103031D01*
X5158277Y-12103031D02*
X5167801Y-12093508D01*
X5167801Y-12093508D02*
X5186848Y-12083984D01*
X5320182Y-12083984D02*
X5443991Y-12083984D01*
X5443991Y-12083984D02*
X5377325Y-12160174D01*
X5377325Y-12160174D02*
X5405896Y-12160174D01*
X5405896Y-12160174D02*
X5424944Y-12169698D01*
X5424944Y-12169698D02*
X5434468Y-12179222D01*
X5434468Y-12179222D02*
X5443991Y-12198269D01*
X5443991Y-12198269D02*
X5443991Y-12245888D01*
X5443991Y-12245888D02*
X5434468Y-12264936D01*
X5434468Y-12264936D02*
X5424944Y-12274460D01*
X5424944Y-12274460D02*
X5405896Y-12283984D01*
X5405896Y-12283984D02*
X5348753Y-12283984D01*
X5348753Y-12283984D02*
X5329706Y-12274460D01*
X5329706Y-12274460D02*
X5320182Y-12264936D01*
X5634467Y-12283984D02*
X5520182Y-12283984D01*
X5577325Y-12283984D02*
X5577325Y-12083984D01*
X5577325Y-12083984D02*
X5558277Y-12112555D01*
X5558277Y-12112555D02*
X5539229Y-12131603D01*
X5539229Y-12131603D02*
X5520182Y-12141127D01*
X5815420Y-12083984D02*
X5720182Y-12083984D01*
X5720182Y-12083984D02*
X5710658Y-12179222D01*
X5710658Y-12179222D02*
X5720182Y-12169698D01*
X5720182Y-12169698D02*
X5739229Y-12160174D01*
X5739229Y-12160174D02*
X5786848Y-12160174D01*
X5786848Y-12160174D02*
X5805896Y-12169698D01*
X5805896Y-12169698D02*
X5815420Y-12179222D01*
X5815420Y-12179222D02*
X5824944Y-12198269D01*
X5824944Y-12198269D02*
X5824944Y-12245888D01*
X5824944Y-12245888D02*
X5815420Y-12264936D01*
X5815420Y-12264936D02*
X5805896Y-12274460D01*
X5805896Y-12274460D02*
X5786848Y-12283984D01*
X5786848Y-12283984D02*
X5739229Y-12283984D01*
X5739229Y-12283984D02*
X5720182Y-12274460D01*
X5720182Y-12274460D02*
X5710658Y-12264936D01*
X5901134Y-12083984D02*
X5901134Y-12122079D01*
X5977325Y-12083984D02*
X5977325Y-12122079D01*
X6272563Y-12360174D02*
X6263039Y-12350650D01*
X6263039Y-12350650D02*
X6243991Y-12322079D01*
X6243991Y-12322079D02*
X6234468Y-12303031D01*
X6234468Y-12303031D02*
X6224944Y-12274460D01*
X6224944Y-12274460D02*
X6215420Y-12226841D01*
X6215420Y-12226841D02*
X6215420Y-12188746D01*
X6215420Y-12188746D02*
X6224944Y-12141127D01*
X6224944Y-12141127D02*
X6234468Y-12112555D01*
X6234468Y-12112555D02*
X6243991Y-12093508D01*
X6243991Y-12093508D02*
X6263039Y-12064936D01*
X6263039Y-12064936D02*
X6272563Y-12055412D01*
X6329706Y-12083984D02*
X6453515Y-12083984D01*
X6453515Y-12083984D02*
X6386848Y-12160174D01*
X6386848Y-12160174D02*
X6415420Y-12160174D01*
X6415420Y-12160174D02*
X6434468Y-12169698D01*
X6434468Y-12169698D02*
X6443991Y-12179222D01*
X6443991Y-12179222D02*
X6453515Y-12198269D01*
X6453515Y-12198269D02*
X6453515Y-12245888D01*
X6453515Y-12245888D02*
X6443991Y-12264936D01*
X6443991Y-12264936D02*
X6434468Y-12274460D01*
X6434468Y-12274460D02*
X6415420Y-12283984D01*
X6415420Y-12283984D02*
X6358277Y-12283984D01*
X6358277Y-12283984D02*
X6339229Y-12274460D01*
X6339229Y-12274460D02*
X6329706Y-12264936D01*
X6529706Y-12103031D02*
X6539229Y-12093508D01*
X6539229Y-12093508D02*
X6558277Y-12083984D01*
X6558277Y-12083984D02*
X6605896Y-12083984D01*
X6605896Y-12083984D02*
X6624944Y-12093508D01*
X6624944Y-12093508D02*
X6634468Y-12103031D01*
X6634468Y-12103031D02*
X6643991Y-12122079D01*
X6643991Y-12122079D02*
X6643991Y-12141127D01*
X6643991Y-12141127D02*
X6634468Y-12169698D01*
X6634468Y-12169698D02*
X6520182Y-12283984D01*
X6520182Y-12283984D02*
X6643991Y-12283984D01*
X6882087Y-12283984D02*
X6882087Y-12083984D01*
X6967801Y-12283984D02*
X6967801Y-12179222D01*
X6967801Y-12179222D02*
X6958277Y-12160174D01*
X6958277Y-12160174D02*
X6939230Y-12150650D01*
X6939230Y-12150650D02*
X6910658Y-12150650D01*
X6910658Y-12150650D02*
X6891610Y-12160174D01*
X6891610Y-12160174D02*
X6882087Y-12169698D01*
X7091610Y-12283984D02*
X7072563Y-12274460D01*
X7072563Y-12274460D02*
X7063039Y-12264936D01*
X7063039Y-12264936D02*
X7053515Y-12245888D01*
X7053515Y-12245888D02*
X7053515Y-12188746D01*
X7053515Y-12188746D02*
X7063039Y-12169698D01*
X7063039Y-12169698D02*
X7072563Y-12160174D01*
X7072563Y-12160174D02*
X7091610Y-12150650D01*
X7091610Y-12150650D02*
X7120182Y-12150650D01*
X7120182Y-12150650D02*
X7139230Y-12160174D01*
X7139230Y-12160174D02*
X7148753Y-12169698D01*
X7148753Y-12169698D02*
X7158277Y-12188746D01*
X7158277Y-12188746D02*
X7158277Y-12245888D01*
X7158277Y-12245888D02*
X7148753Y-12264936D01*
X7148753Y-12264936D02*
X7139230Y-12274460D01*
X7139230Y-12274460D02*
X7120182Y-12283984D01*
X7120182Y-12283984D02*
X7091610Y-12283984D01*
X7272563Y-12283984D02*
X7253515Y-12274460D01*
X7253515Y-12274460D02*
X7243991Y-12255412D01*
X7243991Y-12255412D02*
X7243991Y-12083984D01*
X7424944Y-12274460D02*
X7405896Y-12283984D01*
X7405896Y-12283984D02*
X7367801Y-12283984D01*
X7367801Y-12283984D02*
X7348753Y-12274460D01*
X7348753Y-12274460D02*
X7339230Y-12255412D01*
X7339230Y-12255412D02*
X7339230Y-12179222D01*
X7339230Y-12179222D02*
X7348753Y-12160174D01*
X7348753Y-12160174D02*
X7367801Y-12150650D01*
X7367801Y-12150650D02*
X7405896Y-12150650D01*
X7405896Y-12150650D02*
X7424944Y-12160174D01*
X7424944Y-12160174D02*
X7434468Y-12179222D01*
X7434468Y-12179222D02*
X7434468Y-12198269D01*
X7434468Y-12198269D02*
X7339230Y-12217317D01*
X7510658Y-12274460D02*
X7529706Y-12283984D01*
X7529706Y-12283984D02*
X7567801Y-12283984D01*
X7567801Y-12283984D02*
X7586849Y-12274460D01*
X7586849Y-12274460D02*
X7596372Y-12255412D01*
X7596372Y-12255412D02*
X7596372Y-12245888D01*
X7596372Y-12245888D02*
X7586849Y-12226841D01*
X7586849Y-12226841D02*
X7567801Y-12217317D01*
X7567801Y-12217317D02*
X7539230Y-12217317D01*
X7539230Y-12217317D02*
X7520182Y-12207793D01*
X7520182Y-12207793D02*
X7510658Y-12188746D01*
X7510658Y-12188746D02*
X7510658Y-12179222D01*
X7510658Y-12179222D02*
X7520182Y-12160174D01*
X7520182Y-12160174D02*
X7539230Y-12150650D01*
X7539230Y-12150650D02*
X7567801Y-12150650D01*
X7567801Y-12150650D02*
X7586849Y-12160174D01*
X7663039Y-12360174D02*
X7672563Y-12350650D01*
X7672563Y-12350650D02*
X7691611Y-12322079D01*
X7691611Y-12322079D02*
X7701134Y-12303031D01*
X7701134Y-12303031D02*
X7710658Y-12274460D01*
X7710658Y-12274460D02*
X7720182Y-12226841D01*
X7720182Y-12226841D02*
X7720182Y-12188746D01*
X7720182Y-12188746D02*
X7710658Y-12141127D01*
X7710658Y-12141127D02*
X7701134Y-12112555D01*
X7701134Y-12112555D02*
X7691611Y-12093508D01*
X7691611Y-12093508D02*
X7672563Y-12064936D01*
X7672563Y-12064936D02*
X7663039Y-12055412D01*
D12*
X2697500Y-12456500D02*
G75*
G02*
X2607500Y-12456500I-45000J0D01*
G01*
X2607500Y-12456500D02*
G75*
G02*
X2697500Y-12456500I45000J0D01*
G01*
D11*
X2996372Y-12347984D02*
X3015420Y-12347984D01*
X3015420Y-12347984D02*
X3034467Y-12357508D01*
X3034467Y-12357508D02*
X3043991Y-12367031D01*
X3043991Y-12367031D02*
X3053515Y-12386079D01*
X3053515Y-12386079D02*
X3063039Y-12424174D01*
X3063039Y-12424174D02*
X3063039Y-12471793D01*
X3063039Y-12471793D02*
X3053515Y-12509888D01*
X3053515Y-12509888D02*
X3043991Y-12528936D01*
X3043991Y-12528936D02*
X3034467Y-12538460D01*
X3034467Y-12538460D02*
X3015420Y-12547984D01*
X3015420Y-12547984D02*
X2996372Y-12547984D01*
X2996372Y-12547984D02*
X2977324Y-12538460D01*
X2977324Y-12538460D02*
X2967801Y-12528936D01*
X2967801Y-12528936D02*
X2958277Y-12509888D01*
X2958277Y-12509888D02*
X2948753Y-12471793D01*
X2948753Y-12471793D02*
X2948753Y-12424174D01*
X2948753Y-12424174D02*
X2958277Y-12386079D01*
X2958277Y-12386079D02*
X2967801Y-12367031D01*
X2967801Y-12367031D02*
X2977324Y-12357508D01*
X2977324Y-12357508D02*
X2996372Y-12347984D01*
X3148753Y-12528936D02*
X3158277Y-12538460D01*
X3158277Y-12538460D02*
X3148753Y-12547984D01*
X3148753Y-12547984D02*
X3139229Y-12538460D01*
X3139229Y-12538460D02*
X3148753Y-12528936D01*
X3148753Y-12528936D02*
X3148753Y-12547984D01*
X3253515Y-12547984D02*
X3291610Y-12547984D01*
X3291610Y-12547984D02*
X3310658Y-12538460D01*
X3310658Y-12538460D02*
X3320182Y-12528936D01*
X3320182Y-12528936D02*
X3339229Y-12500365D01*
X3339229Y-12500365D02*
X3348753Y-12462269D01*
X3348753Y-12462269D02*
X3348753Y-12386079D01*
X3348753Y-12386079D02*
X3339229Y-12367031D01*
X3339229Y-12367031D02*
X3329705Y-12357508D01*
X3329705Y-12357508D02*
X3310658Y-12347984D01*
X3310658Y-12347984D02*
X3272562Y-12347984D01*
X3272562Y-12347984D02*
X3253515Y-12357508D01*
X3253515Y-12357508D02*
X3243991Y-12367031D01*
X3243991Y-12367031D02*
X3234467Y-12386079D01*
X3234467Y-12386079D02*
X3234467Y-12433698D01*
X3234467Y-12433698D02*
X3243991Y-12452746D01*
X3243991Y-12452746D02*
X3253515Y-12462269D01*
X3253515Y-12462269D02*
X3272562Y-12471793D01*
X3272562Y-12471793D02*
X3310658Y-12471793D01*
X3310658Y-12471793D02*
X3329705Y-12462269D01*
X3329705Y-12462269D02*
X3339229Y-12452746D01*
X3339229Y-12452746D02*
X3348753Y-12433698D01*
X3472562Y-12347984D02*
X3491610Y-12347984D01*
X3491610Y-12347984D02*
X3510658Y-12357508D01*
X3510658Y-12357508D02*
X3520182Y-12367031D01*
X3520182Y-12367031D02*
X3529705Y-12386079D01*
X3529705Y-12386079D02*
X3539229Y-12424174D01*
X3539229Y-12424174D02*
X3539229Y-12471793D01*
X3539229Y-12471793D02*
X3529705Y-12509888D01*
X3529705Y-12509888D02*
X3520182Y-12528936D01*
X3520182Y-12528936D02*
X3510658Y-12538460D01*
X3510658Y-12538460D02*
X3491610Y-12547984D01*
X3491610Y-12547984D02*
X3472562Y-12547984D01*
X3472562Y-12547984D02*
X3453515Y-12538460D01*
X3453515Y-12538460D02*
X3443991Y-12528936D01*
X3443991Y-12528936D02*
X3434467Y-12509888D01*
X3434467Y-12509888D02*
X3424943Y-12471793D01*
X3424943Y-12471793D02*
X3424943Y-12424174D01*
X3424943Y-12424174D02*
X3434467Y-12386079D01*
X3434467Y-12386079D02*
X3443991Y-12367031D01*
X3443991Y-12367031D02*
X3453515Y-12357508D01*
X3453515Y-12357508D02*
X3472562Y-12347984D01*
X3663039Y-12347984D02*
X3682086Y-12347984D01*
X3682086Y-12347984D02*
X3701134Y-12357508D01*
X3701134Y-12357508D02*
X3710658Y-12367031D01*
X3710658Y-12367031D02*
X3720182Y-12386079D01*
X3720182Y-12386079D02*
X3729705Y-12424174D01*
X3729705Y-12424174D02*
X3729705Y-12471793D01*
X3729705Y-12471793D02*
X3720182Y-12509888D01*
X3720182Y-12509888D02*
X3710658Y-12528936D01*
X3710658Y-12528936D02*
X3701134Y-12538460D01*
X3701134Y-12538460D02*
X3682086Y-12547984D01*
X3682086Y-12547984D02*
X3663039Y-12547984D01*
X3663039Y-12547984D02*
X3643991Y-12538460D01*
X3643991Y-12538460D02*
X3634467Y-12528936D01*
X3634467Y-12528936D02*
X3624943Y-12509888D01*
X3624943Y-12509888D02*
X3615420Y-12471793D01*
X3615420Y-12471793D02*
X3615420Y-12424174D01*
X3615420Y-12424174D02*
X3624943Y-12386079D01*
X3624943Y-12386079D02*
X3634467Y-12367031D01*
X3634467Y-12367031D02*
X3643991Y-12357508D01*
X3643991Y-12357508D02*
X3663039Y-12347984D01*
X3815420Y-12547984D02*
X3815420Y-12414650D01*
X3815420Y-12433698D02*
X3824943Y-12424174D01*
X3824943Y-12424174D02*
X3843991Y-12414650D01*
X3843991Y-12414650D02*
X3872563Y-12414650D01*
X3872563Y-12414650D02*
X3891610Y-12424174D01*
X3891610Y-12424174D02*
X3901134Y-12443222D01*
X3901134Y-12443222D02*
X3901134Y-12547984D01*
X3901134Y-12443222D02*
X3910658Y-12424174D01*
X3910658Y-12424174D02*
X3929705Y-12414650D01*
X3929705Y-12414650D02*
X3958277Y-12414650D01*
X3958277Y-12414650D02*
X3977324Y-12424174D01*
X3977324Y-12424174D02*
X3986848Y-12443222D01*
X3986848Y-12443222D02*
X3986848Y-12547984D01*
X4082086Y-12547984D02*
X4082086Y-12414650D01*
X4082086Y-12433698D02*
X4091610Y-12424174D01*
X4091610Y-12424174D02*
X4110658Y-12414650D01*
X4110658Y-12414650D02*
X4139229Y-12414650D01*
X4139229Y-12414650D02*
X4158277Y-12424174D01*
X4158277Y-12424174D02*
X4167801Y-12443222D01*
X4167801Y-12443222D02*
X4167801Y-12547984D01*
X4167801Y-12443222D02*
X4177324Y-12424174D01*
X4177324Y-12424174D02*
X4196372Y-12414650D01*
X4196372Y-12414650D02*
X4224944Y-12414650D01*
X4224944Y-12414650D02*
X4243991Y-12424174D01*
X4243991Y-12424174D02*
X4253515Y-12443222D01*
X4253515Y-12443222D02*
X4253515Y-12547984D01*
X4643991Y-12338460D02*
X4472563Y-12595603D01*
X4901134Y-12347984D02*
X4920182Y-12347984D01*
X4920182Y-12347984D02*
X4939229Y-12357508D01*
X4939229Y-12357508D02*
X4948753Y-12367031D01*
X4948753Y-12367031D02*
X4958277Y-12386079D01*
X4958277Y-12386079D02*
X4967801Y-12424174D01*
X4967801Y-12424174D02*
X4967801Y-12471793D01*
X4967801Y-12471793D02*
X4958277Y-12509888D01*
X4958277Y-12509888D02*
X4948753Y-12528936D01*
X4948753Y-12528936D02*
X4939229Y-12538460D01*
X4939229Y-12538460D02*
X4920182Y-12547984D01*
X4920182Y-12547984D02*
X4901134Y-12547984D01*
X4901134Y-12547984D02*
X4882087Y-12538460D01*
X4882087Y-12538460D02*
X4872563Y-12528936D01*
X4872563Y-12528936D02*
X4863039Y-12509888D01*
X4863039Y-12509888D02*
X4853515Y-12471793D01*
X4853515Y-12471793D02*
X4853515Y-12424174D01*
X4853515Y-12424174D02*
X4863039Y-12386079D01*
X4863039Y-12386079D02*
X4872563Y-12367031D01*
X4872563Y-12367031D02*
X4882087Y-12357508D01*
X4882087Y-12357508D02*
X4901134Y-12347984D01*
X5053515Y-12528936D02*
X5063039Y-12538460D01*
X5063039Y-12538460D02*
X5053515Y-12547984D01*
X5053515Y-12547984D02*
X5043991Y-12538460D01*
X5043991Y-12538460D02*
X5053515Y-12528936D01*
X5053515Y-12528936D02*
X5053515Y-12547984D01*
X5186848Y-12347984D02*
X5205896Y-12347984D01*
X5205896Y-12347984D02*
X5224944Y-12357508D01*
X5224944Y-12357508D02*
X5234468Y-12367031D01*
X5234468Y-12367031D02*
X5243991Y-12386079D01*
X5243991Y-12386079D02*
X5253515Y-12424174D01*
X5253515Y-12424174D02*
X5253515Y-12471793D01*
X5253515Y-12471793D02*
X5243991Y-12509888D01*
X5243991Y-12509888D02*
X5234468Y-12528936D01*
X5234468Y-12528936D02*
X5224944Y-12538460D01*
X5224944Y-12538460D02*
X5205896Y-12547984D01*
X5205896Y-12547984D02*
X5186848Y-12547984D01*
X5186848Y-12547984D02*
X5167801Y-12538460D01*
X5167801Y-12538460D02*
X5158277Y-12528936D01*
X5158277Y-12528936D02*
X5148753Y-12509888D01*
X5148753Y-12509888D02*
X5139229Y-12471793D01*
X5139229Y-12471793D02*
X5139229Y-12424174D01*
X5139229Y-12424174D02*
X5148753Y-12386079D01*
X5148753Y-12386079D02*
X5158277Y-12367031D01*
X5158277Y-12367031D02*
X5167801Y-12357508D01*
X5167801Y-12357508D02*
X5186848Y-12347984D01*
X5320182Y-12347984D02*
X5443991Y-12347984D01*
X5443991Y-12347984D02*
X5377325Y-12424174D01*
X5377325Y-12424174D02*
X5405896Y-12424174D01*
X5405896Y-12424174D02*
X5424944Y-12433698D01*
X5424944Y-12433698D02*
X5434468Y-12443222D01*
X5434468Y-12443222D02*
X5443991Y-12462269D01*
X5443991Y-12462269D02*
X5443991Y-12509888D01*
X5443991Y-12509888D02*
X5434468Y-12528936D01*
X5434468Y-12528936D02*
X5424944Y-12538460D01*
X5424944Y-12538460D02*
X5405896Y-12547984D01*
X5405896Y-12547984D02*
X5348753Y-12547984D01*
X5348753Y-12547984D02*
X5329706Y-12538460D01*
X5329706Y-12538460D02*
X5320182Y-12528936D01*
X5624944Y-12347984D02*
X5529706Y-12347984D01*
X5529706Y-12347984D02*
X5520182Y-12443222D01*
X5520182Y-12443222D02*
X5529706Y-12433698D01*
X5529706Y-12433698D02*
X5548753Y-12424174D01*
X5548753Y-12424174D02*
X5596372Y-12424174D01*
X5596372Y-12424174D02*
X5615420Y-12433698D01*
X5615420Y-12433698D02*
X5624944Y-12443222D01*
X5624944Y-12443222D02*
X5634467Y-12462269D01*
X5634467Y-12462269D02*
X5634467Y-12509888D01*
X5634467Y-12509888D02*
X5624944Y-12528936D01*
X5624944Y-12528936D02*
X5615420Y-12538460D01*
X5615420Y-12538460D02*
X5596372Y-12547984D01*
X5596372Y-12547984D02*
X5548753Y-12547984D01*
X5548753Y-12547984D02*
X5529706Y-12538460D01*
X5529706Y-12538460D02*
X5520182Y-12528936D01*
X5805896Y-12414650D02*
X5805896Y-12547984D01*
X5758277Y-12338460D02*
X5710658Y-12481317D01*
X5710658Y-12481317D02*
X5834467Y-12481317D01*
X5901134Y-12347984D02*
X5901134Y-12386079D01*
X5977325Y-12347984D02*
X5977325Y-12386079D01*
X6272563Y-12624174D02*
X6263039Y-12614650D01*
X6263039Y-12614650D02*
X6243991Y-12586079D01*
X6243991Y-12586079D02*
X6234468Y-12567031D01*
X6234468Y-12567031D02*
X6224944Y-12538460D01*
X6224944Y-12538460D02*
X6215420Y-12490841D01*
X6215420Y-12490841D02*
X6215420Y-12452746D01*
X6215420Y-12452746D02*
X6224944Y-12405127D01*
X6224944Y-12405127D02*
X6234468Y-12376555D01*
X6234468Y-12376555D02*
X6243991Y-12357508D01*
X6243991Y-12357508D02*
X6263039Y-12328936D01*
X6263039Y-12328936D02*
X6272563Y-12319412D01*
X6453515Y-12547984D02*
X6339229Y-12547984D01*
X6396372Y-12547984D02*
X6396372Y-12347984D01*
X6396372Y-12347984D02*
X6377325Y-12376555D01*
X6377325Y-12376555D02*
X6358277Y-12395603D01*
X6358277Y-12395603D02*
X6339229Y-12405127D01*
X6529706Y-12367031D02*
X6539229Y-12357508D01*
X6539229Y-12357508D02*
X6558277Y-12347984D01*
X6558277Y-12347984D02*
X6605896Y-12347984D01*
X6605896Y-12347984D02*
X6624944Y-12357508D01*
X6624944Y-12357508D02*
X6634468Y-12367031D01*
X6634468Y-12367031D02*
X6643991Y-12386079D01*
X6643991Y-12386079D02*
X6643991Y-12405127D01*
X6643991Y-12405127D02*
X6634468Y-12433698D01*
X6634468Y-12433698D02*
X6520182Y-12547984D01*
X6520182Y-12547984D02*
X6643991Y-12547984D01*
X6882087Y-12547984D02*
X6882087Y-12347984D01*
X6967801Y-12547984D02*
X6967801Y-12443222D01*
X6967801Y-12443222D02*
X6958277Y-12424174D01*
X6958277Y-12424174D02*
X6939230Y-12414650D01*
X6939230Y-12414650D02*
X6910658Y-12414650D01*
X6910658Y-12414650D02*
X6891610Y-12424174D01*
X6891610Y-12424174D02*
X6882087Y-12433698D01*
X7091610Y-12547984D02*
X7072563Y-12538460D01*
X7072563Y-12538460D02*
X7063039Y-12528936D01*
X7063039Y-12528936D02*
X7053515Y-12509888D01*
X7053515Y-12509888D02*
X7053515Y-12452746D01*
X7053515Y-12452746D02*
X7063039Y-12433698D01*
X7063039Y-12433698D02*
X7072563Y-12424174D01*
X7072563Y-12424174D02*
X7091610Y-12414650D01*
X7091610Y-12414650D02*
X7120182Y-12414650D01*
X7120182Y-12414650D02*
X7139230Y-12424174D01*
X7139230Y-12424174D02*
X7148753Y-12433698D01*
X7148753Y-12433698D02*
X7158277Y-12452746D01*
X7158277Y-12452746D02*
X7158277Y-12509888D01*
X7158277Y-12509888D02*
X7148753Y-12528936D01*
X7148753Y-12528936D02*
X7139230Y-12538460D01*
X7139230Y-12538460D02*
X7120182Y-12547984D01*
X7120182Y-12547984D02*
X7091610Y-12547984D01*
X7272563Y-12547984D02*
X7253515Y-12538460D01*
X7253515Y-12538460D02*
X7243991Y-12519412D01*
X7243991Y-12519412D02*
X7243991Y-12347984D01*
X7424944Y-12538460D02*
X7405896Y-12547984D01*
X7405896Y-12547984D02*
X7367801Y-12547984D01*
X7367801Y-12547984D02*
X7348753Y-12538460D01*
X7348753Y-12538460D02*
X7339230Y-12519412D01*
X7339230Y-12519412D02*
X7339230Y-12443222D01*
X7339230Y-12443222D02*
X7348753Y-12424174D01*
X7348753Y-12424174D02*
X7367801Y-12414650D01*
X7367801Y-12414650D02*
X7405896Y-12414650D01*
X7405896Y-12414650D02*
X7424944Y-12424174D01*
X7424944Y-12424174D02*
X7434468Y-12443222D01*
X7434468Y-12443222D02*
X7434468Y-12462269D01*
X7434468Y-12462269D02*
X7339230Y-12481317D01*
X7510658Y-12538460D02*
X7529706Y-12547984D01*
X7529706Y-12547984D02*
X7567801Y-12547984D01*
X7567801Y-12547984D02*
X7586849Y-12538460D01*
X7586849Y-12538460D02*
X7596372Y-12519412D01*
X7596372Y-12519412D02*
X7596372Y-12509888D01*
X7596372Y-12509888D02*
X7586849Y-12490841D01*
X7586849Y-12490841D02*
X7567801Y-12481317D01*
X7567801Y-12481317D02*
X7539230Y-12481317D01*
X7539230Y-12481317D02*
X7520182Y-12471793D01*
X7520182Y-12471793D02*
X7510658Y-12452746D01*
X7510658Y-12452746D02*
X7510658Y-12443222D01*
X7510658Y-12443222D02*
X7520182Y-12424174D01*
X7520182Y-12424174D02*
X7539230Y-12414650D01*
X7539230Y-12414650D02*
X7567801Y-12414650D01*
X7567801Y-12414650D02*
X7586849Y-12424174D01*
X7663039Y-12624174D02*
X7672563Y-12614650D01*
X7672563Y-12614650D02*
X7691611Y-12586079D01*
X7691611Y-12586079D02*
X7701134Y-12567031D01*
X7701134Y-12567031D02*
X7710658Y-12538460D01*
X7710658Y-12538460D02*
X7720182Y-12490841D01*
X7720182Y-12490841D02*
X7720182Y-12452746D01*
X7720182Y-12452746D02*
X7710658Y-12405127D01*
X7710658Y-12405127D02*
X7701134Y-12376555D01*
X7701134Y-12376555D02*
X7691611Y-12357508D01*
X7691611Y-12357508D02*
X7672563Y-12328936D01*
X7672563Y-12328936D02*
X7663039Y-12319412D01*
D13*
X2642500Y-12665500D02*
X2642500Y-12775500D01*
X2587500Y-12720500D02*
X2697500Y-12720500D01*
D11*
X3063039Y-12811984D02*
X2948753Y-12811984D01*
X3005896Y-12811984D02*
X3005896Y-12611984D01*
X3005896Y-12611984D02*
X2986848Y-12640555D01*
X2986848Y-12640555D02*
X2967801Y-12659603D01*
X2967801Y-12659603D02*
X2948753Y-12669127D01*
X3148753Y-12792936D02*
X3158277Y-12802460D01*
X3158277Y-12802460D02*
X3148753Y-12811984D01*
X3148753Y-12811984D02*
X3139229Y-12802460D01*
X3139229Y-12802460D02*
X3148753Y-12792936D01*
X3148753Y-12792936D02*
X3148753Y-12811984D01*
X3348753Y-12811984D02*
X3234467Y-12811984D01*
X3291610Y-12811984D02*
X3291610Y-12611984D01*
X3291610Y-12611984D02*
X3272562Y-12640555D01*
X3272562Y-12640555D02*
X3253515Y-12659603D01*
X3253515Y-12659603D02*
X3234467Y-12669127D01*
X3472562Y-12611984D02*
X3491610Y-12611984D01*
X3491610Y-12611984D02*
X3510658Y-12621508D01*
X3510658Y-12621508D02*
X3520182Y-12631031D01*
X3520182Y-12631031D02*
X3529705Y-12650079D01*
X3529705Y-12650079D02*
X3539229Y-12688174D01*
X3539229Y-12688174D02*
X3539229Y-12735793D01*
X3539229Y-12735793D02*
X3529705Y-12773888D01*
X3529705Y-12773888D02*
X3520182Y-12792936D01*
X3520182Y-12792936D02*
X3510658Y-12802460D01*
X3510658Y-12802460D02*
X3491610Y-12811984D01*
X3491610Y-12811984D02*
X3472562Y-12811984D01*
X3472562Y-12811984D02*
X3453515Y-12802460D01*
X3453515Y-12802460D02*
X3443991Y-12792936D01*
X3443991Y-12792936D02*
X3434467Y-12773888D01*
X3434467Y-12773888D02*
X3424943Y-12735793D01*
X3424943Y-12735793D02*
X3424943Y-12688174D01*
X3424943Y-12688174D02*
X3434467Y-12650079D01*
X3434467Y-12650079D02*
X3443991Y-12631031D01*
X3443991Y-12631031D02*
X3453515Y-12621508D01*
X3453515Y-12621508D02*
X3472562Y-12611984D01*
X3663039Y-12611984D02*
X3682086Y-12611984D01*
X3682086Y-12611984D02*
X3701134Y-12621508D01*
X3701134Y-12621508D02*
X3710658Y-12631031D01*
X3710658Y-12631031D02*
X3720182Y-12650079D01*
X3720182Y-12650079D02*
X3729705Y-12688174D01*
X3729705Y-12688174D02*
X3729705Y-12735793D01*
X3729705Y-12735793D02*
X3720182Y-12773888D01*
X3720182Y-12773888D02*
X3710658Y-12792936D01*
X3710658Y-12792936D02*
X3701134Y-12802460D01*
X3701134Y-12802460D02*
X3682086Y-12811984D01*
X3682086Y-12811984D02*
X3663039Y-12811984D01*
X3663039Y-12811984D02*
X3643991Y-12802460D01*
X3643991Y-12802460D02*
X3634467Y-12792936D01*
X3634467Y-12792936D02*
X3624943Y-12773888D01*
X3624943Y-12773888D02*
X3615420Y-12735793D01*
X3615420Y-12735793D02*
X3615420Y-12688174D01*
X3615420Y-12688174D02*
X3624943Y-12650079D01*
X3624943Y-12650079D02*
X3634467Y-12631031D01*
X3634467Y-12631031D02*
X3643991Y-12621508D01*
X3643991Y-12621508D02*
X3663039Y-12611984D01*
X3815420Y-12811984D02*
X3815420Y-12678650D01*
X3815420Y-12697698D02*
X3824943Y-12688174D01*
X3824943Y-12688174D02*
X3843991Y-12678650D01*
X3843991Y-12678650D02*
X3872563Y-12678650D01*
X3872563Y-12678650D02*
X3891610Y-12688174D01*
X3891610Y-12688174D02*
X3901134Y-12707222D01*
X3901134Y-12707222D02*
X3901134Y-12811984D01*
X3901134Y-12707222D02*
X3910658Y-12688174D01*
X3910658Y-12688174D02*
X3929705Y-12678650D01*
X3929705Y-12678650D02*
X3958277Y-12678650D01*
X3958277Y-12678650D02*
X3977324Y-12688174D01*
X3977324Y-12688174D02*
X3986848Y-12707222D01*
X3986848Y-12707222D02*
X3986848Y-12811984D01*
X4082086Y-12811984D02*
X4082086Y-12678650D01*
X4082086Y-12697698D02*
X4091610Y-12688174D01*
X4091610Y-12688174D02*
X4110658Y-12678650D01*
X4110658Y-12678650D02*
X4139229Y-12678650D01*
X4139229Y-12678650D02*
X4158277Y-12688174D01*
X4158277Y-12688174D02*
X4167801Y-12707222D01*
X4167801Y-12707222D02*
X4167801Y-12811984D01*
X4167801Y-12707222D02*
X4177324Y-12688174D01*
X4177324Y-12688174D02*
X4196372Y-12678650D01*
X4196372Y-12678650D02*
X4224944Y-12678650D01*
X4224944Y-12678650D02*
X4243991Y-12688174D01*
X4243991Y-12688174D02*
X4253515Y-12707222D01*
X4253515Y-12707222D02*
X4253515Y-12811984D01*
X4643991Y-12602460D02*
X4472563Y-12859603D01*
X4901134Y-12611984D02*
X4920182Y-12611984D01*
X4920182Y-12611984D02*
X4939229Y-12621508D01*
X4939229Y-12621508D02*
X4948753Y-12631031D01*
X4948753Y-12631031D02*
X4958277Y-12650079D01*
X4958277Y-12650079D02*
X4967801Y-12688174D01*
X4967801Y-12688174D02*
X4967801Y-12735793D01*
X4967801Y-12735793D02*
X4958277Y-12773888D01*
X4958277Y-12773888D02*
X4948753Y-12792936D01*
X4948753Y-12792936D02*
X4939229Y-12802460D01*
X4939229Y-12802460D02*
X4920182Y-12811984D01*
X4920182Y-12811984D02*
X4901134Y-12811984D01*
X4901134Y-12811984D02*
X4882087Y-12802460D01*
X4882087Y-12802460D02*
X4872563Y-12792936D01*
X4872563Y-12792936D02*
X4863039Y-12773888D01*
X4863039Y-12773888D02*
X4853515Y-12735793D01*
X4853515Y-12735793D02*
X4853515Y-12688174D01*
X4853515Y-12688174D02*
X4863039Y-12650079D01*
X4863039Y-12650079D02*
X4872563Y-12631031D01*
X4872563Y-12631031D02*
X4882087Y-12621508D01*
X4882087Y-12621508D02*
X4901134Y-12611984D01*
X5053515Y-12792936D02*
X5063039Y-12802460D01*
X5063039Y-12802460D02*
X5053515Y-12811984D01*
X5053515Y-12811984D02*
X5043991Y-12802460D01*
X5043991Y-12802460D02*
X5053515Y-12792936D01*
X5053515Y-12792936D02*
X5053515Y-12811984D01*
X5186848Y-12611984D02*
X5205896Y-12611984D01*
X5205896Y-12611984D02*
X5224944Y-12621508D01*
X5224944Y-12621508D02*
X5234468Y-12631031D01*
X5234468Y-12631031D02*
X5243991Y-12650079D01*
X5243991Y-12650079D02*
X5253515Y-12688174D01*
X5253515Y-12688174D02*
X5253515Y-12735793D01*
X5253515Y-12735793D02*
X5243991Y-12773888D01*
X5243991Y-12773888D02*
X5234468Y-12792936D01*
X5234468Y-12792936D02*
X5224944Y-12802460D01*
X5224944Y-12802460D02*
X5205896Y-12811984D01*
X5205896Y-12811984D02*
X5186848Y-12811984D01*
X5186848Y-12811984D02*
X5167801Y-12802460D01*
X5167801Y-12802460D02*
X5158277Y-12792936D01*
X5158277Y-12792936D02*
X5148753Y-12773888D01*
X5148753Y-12773888D02*
X5139229Y-12735793D01*
X5139229Y-12735793D02*
X5139229Y-12688174D01*
X5139229Y-12688174D02*
X5148753Y-12650079D01*
X5148753Y-12650079D02*
X5158277Y-12631031D01*
X5158277Y-12631031D02*
X5167801Y-12621508D01*
X5167801Y-12621508D02*
X5186848Y-12611984D01*
X5424944Y-12678650D02*
X5424944Y-12811984D01*
X5377325Y-12602460D02*
X5329706Y-12745317D01*
X5329706Y-12745317D02*
X5453515Y-12745317D01*
X5510658Y-12611984D02*
X5634467Y-12611984D01*
X5634467Y-12611984D02*
X5567801Y-12688174D01*
X5567801Y-12688174D02*
X5596372Y-12688174D01*
X5596372Y-12688174D02*
X5615420Y-12697698D01*
X5615420Y-12697698D02*
X5624944Y-12707222D01*
X5624944Y-12707222D02*
X5634467Y-12726269D01*
X5634467Y-12726269D02*
X5634467Y-12773888D01*
X5634467Y-12773888D02*
X5624944Y-12792936D01*
X5624944Y-12792936D02*
X5615420Y-12802460D01*
X5615420Y-12802460D02*
X5596372Y-12811984D01*
X5596372Y-12811984D02*
X5539229Y-12811984D01*
X5539229Y-12811984D02*
X5520182Y-12802460D01*
X5520182Y-12802460D02*
X5510658Y-12792936D01*
X5701134Y-12611984D02*
X5824944Y-12611984D01*
X5824944Y-12611984D02*
X5758277Y-12688174D01*
X5758277Y-12688174D02*
X5786848Y-12688174D01*
X5786848Y-12688174D02*
X5805896Y-12697698D01*
X5805896Y-12697698D02*
X5815420Y-12707222D01*
X5815420Y-12707222D02*
X5824944Y-12726269D01*
X5824944Y-12726269D02*
X5824944Y-12773888D01*
X5824944Y-12773888D02*
X5815420Y-12792936D01*
X5815420Y-12792936D02*
X5805896Y-12802460D01*
X5805896Y-12802460D02*
X5786848Y-12811984D01*
X5786848Y-12811984D02*
X5729706Y-12811984D01*
X5729706Y-12811984D02*
X5710658Y-12802460D01*
X5710658Y-12802460D02*
X5701134Y-12792936D01*
X5901134Y-12611984D02*
X5901134Y-12650079D01*
X5977325Y-12611984D02*
X5977325Y-12650079D01*
X6272563Y-12888174D02*
X6263039Y-12878650D01*
X6263039Y-12878650D02*
X6243991Y-12850079D01*
X6243991Y-12850079D02*
X6234468Y-12831031D01*
X6234468Y-12831031D02*
X6224944Y-12802460D01*
X6224944Y-12802460D02*
X6215420Y-12754841D01*
X6215420Y-12754841D02*
X6215420Y-12716746D01*
X6215420Y-12716746D02*
X6224944Y-12669127D01*
X6224944Y-12669127D02*
X6234468Y-12640555D01*
X6234468Y-12640555D02*
X6243991Y-12621508D01*
X6243991Y-12621508D02*
X6263039Y-12592936D01*
X6263039Y-12592936D02*
X6272563Y-12583412D01*
X6434468Y-12678650D02*
X6434468Y-12811984D01*
X6386848Y-12602460D02*
X6339229Y-12745317D01*
X6339229Y-12745317D02*
X6463039Y-12745317D01*
X6691610Y-12811984D02*
X6691610Y-12611984D01*
X6777325Y-12811984D02*
X6777325Y-12707222D01*
X6777325Y-12707222D02*
X6767801Y-12688174D01*
X6767801Y-12688174D02*
X6748753Y-12678650D01*
X6748753Y-12678650D02*
X6720182Y-12678650D01*
X6720182Y-12678650D02*
X6701134Y-12688174D01*
X6701134Y-12688174D02*
X6691610Y-12697698D01*
X6901134Y-12811984D02*
X6882087Y-12802460D01*
X6882087Y-12802460D02*
X6872563Y-12792936D01*
X6872563Y-12792936D02*
X6863039Y-12773888D01*
X6863039Y-12773888D02*
X6863039Y-12716746D01*
X6863039Y-12716746D02*
X6872563Y-12697698D01*
X6872563Y-12697698D02*
X6882087Y-12688174D01*
X6882087Y-12688174D02*
X6901134Y-12678650D01*
X6901134Y-12678650D02*
X6929706Y-12678650D01*
X6929706Y-12678650D02*
X6948753Y-12688174D01*
X6948753Y-12688174D02*
X6958277Y-12697698D01*
X6958277Y-12697698D02*
X6967801Y-12716746D01*
X6967801Y-12716746D02*
X6967801Y-12773888D01*
X6967801Y-12773888D02*
X6958277Y-12792936D01*
X6958277Y-12792936D02*
X6948753Y-12802460D01*
X6948753Y-12802460D02*
X6929706Y-12811984D01*
X6929706Y-12811984D02*
X6901134Y-12811984D01*
X7082087Y-12811984D02*
X7063039Y-12802460D01*
X7063039Y-12802460D02*
X7053515Y-12783412D01*
X7053515Y-12783412D02*
X7053515Y-12611984D01*
X7234468Y-12802460D02*
X7215420Y-12811984D01*
X7215420Y-12811984D02*
X7177325Y-12811984D01*
X7177325Y-12811984D02*
X7158277Y-12802460D01*
X7158277Y-12802460D02*
X7148753Y-12783412D01*
X7148753Y-12783412D02*
X7148753Y-12707222D01*
X7148753Y-12707222D02*
X7158277Y-12688174D01*
X7158277Y-12688174D02*
X7177325Y-12678650D01*
X7177325Y-12678650D02*
X7215420Y-12678650D01*
X7215420Y-12678650D02*
X7234468Y-12688174D01*
X7234468Y-12688174D02*
X7243991Y-12707222D01*
X7243991Y-12707222D02*
X7243991Y-12726269D01*
X7243991Y-12726269D02*
X7148753Y-12745317D01*
X7320182Y-12802460D02*
X7339230Y-12811984D01*
X7339230Y-12811984D02*
X7377325Y-12811984D01*
X7377325Y-12811984D02*
X7396372Y-12802460D01*
X7396372Y-12802460D02*
X7405896Y-12783412D01*
X7405896Y-12783412D02*
X7405896Y-12773888D01*
X7405896Y-12773888D02*
X7396372Y-12754841D01*
X7396372Y-12754841D02*
X7377325Y-12745317D01*
X7377325Y-12745317D02*
X7348753Y-12745317D01*
X7348753Y-12745317D02*
X7329706Y-12735793D01*
X7329706Y-12735793D02*
X7320182Y-12716746D01*
X7320182Y-12716746D02*
X7320182Y-12707222D01*
X7320182Y-12707222D02*
X7329706Y-12688174D01*
X7329706Y-12688174D02*
X7348753Y-12678650D01*
X7348753Y-12678650D02*
X7377325Y-12678650D01*
X7377325Y-12678650D02*
X7396372Y-12688174D01*
X7472563Y-12888174D02*
X7482087Y-12878650D01*
X7482087Y-12878650D02*
X7501134Y-12850079D01*
X7501134Y-12850079D02*
X7510658Y-12831031D01*
X7510658Y-12831031D02*
X7520182Y-12802460D01*
X7520182Y-12802460D02*
X7529706Y-12754841D01*
X7529706Y-12754841D02*
X7529706Y-12716746D01*
X7529706Y-12716746D02*
X7520182Y-12669127D01*
X7520182Y-12669127D02*
X7510658Y-12640555D01*
X7510658Y-12640555D02*
X7501134Y-12621508D01*
X7501134Y-12621508D02*
X7482087Y-12592936D01*
X7482087Y-12592936D02*
X7472563Y-12583412D01*
D14*
X2676998Y-13033998D02*
X2676998Y-12935002D01*
X2578002Y-12935002D01*
X2578002Y-13033998D01*
X2676998Y-13033998D01*
D11*
X3063039Y-13075984D02*
X2948753Y-13075984D01*
X3005896Y-13075984D02*
X3005896Y-12875984D01*
X3005896Y-12875984D02*
X2986848Y-12904555D01*
X2986848Y-12904555D02*
X2967801Y-12923603D01*
X2967801Y-12923603D02*
X2948753Y-12933127D01*
X3148753Y-13056936D02*
X3158277Y-13066460D01*
X3158277Y-13066460D02*
X3148753Y-13075984D01*
X3148753Y-13075984D02*
X3139229Y-13066460D01*
X3139229Y-13066460D02*
X3148753Y-13056936D01*
X3148753Y-13056936D02*
X3148753Y-13075984D01*
X3329705Y-12942650D02*
X3329705Y-13075984D01*
X3282086Y-12866460D02*
X3234467Y-13009317D01*
X3234467Y-13009317D02*
X3358277Y-13009317D01*
X3472562Y-12875984D02*
X3491610Y-12875984D01*
X3491610Y-12875984D02*
X3510658Y-12885508D01*
X3510658Y-12885508D02*
X3520182Y-12895031D01*
X3520182Y-12895031D02*
X3529705Y-12914079D01*
X3529705Y-12914079D02*
X3539229Y-12952174D01*
X3539229Y-12952174D02*
X3539229Y-12999793D01*
X3539229Y-12999793D02*
X3529705Y-13037888D01*
X3529705Y-13037888D02*
X3520182Y-13056936D01*
X3520182Y-13056936D02*
X3510658Y-13066460D01*
X3510658Y-13066460D02*
X3491610Y-13075984D01*
X3491610Y-13075984D02*
X3472562Y-13075984D01*
X3472562Y-13075984D02*
X3453515Y-13066460D01*
X3453515Y-13066460D02*
X3443991Y-13056936D01*
X3443991Y-13056936D02*
X3434467Y-13037888D01*
X3434467Y-13037888D02*
X3424943Y-12999793D01*
X3424943Y-12999793D02*
X3424943Y-12952174D01*
X3424943Y-12952174D02*
X3434467Y-12914079D01*
X3434467Y-12914079D02*
X3443991Y-12895031D01*
X3443991Y-12895031D02*
X3453515Y-12885508D01*
X3453515Y-12885508D02*
X3472562Y-12875984D01*
X3663039Y-12875984D02*
X3682086Y-12875984D01*
X3682086Y-12875984D02*
X3701134Y-12885508D01*
X3701134Y-12885508D02*
X3710658Y-12895031D01*
X3710658Y-12895031D02*
X3720182Y-12914079D01*
X3720182Y-12914079D02*
X3729705Y-12952174D01*
X3729705Y-12952174D02*
X3729705Y-12999793D01*
X3729705Y-12999793D02*
X3720182Y-13037888D01*
X3720182Y-13037888D02*
X3710658Y-13056936D01*
X3710658Y-13056936D02*
X3701134Y-13066460D01*
X3701134Y-13066460D02*
X3682086Y-13075984D01*
X3682086Y-13075984D02*
X3663039Y-13075984D01*
X3663039Y-13075984D02*
X3643991Y-13066460D01*
X3643991Y-13066460D02*
X3634467Y-13056936D01*
X3634467Y-13056936D02*
X3624943Y-13037888D01*
X3624943Y-13037888D02*
X3615420Y-12999793D01*
X3615420Y-12999793D02*
X3615420Y-12952174D01*
X3615420Y-12952174D02*
X3624943Y-12914079D01*
X3624943Y-12914079D02*
X3634467Y-12895031D01*
X3634467Y-12895031D02*
X3643991Y-12885508D01*
X3643991Y-12885508D02*
X3663039Y-12875984D01*
X3815420Y-13075984D02*
X3815420Y-12942650D01*
X3815420Y-12961698D02*
X3824943Y-12952174D01*
X3824943Y-12952174D02*
X3843991Y-12942650D01*
X3843991Y-12942650D02*
X3872563Y-12942650D01*
X3872563Y-12942650D02*
X3891610Y-12952174D01*
X3891610Y-12952174D02*
X3901134Y-12971222D01*
X3901134Y-12971222D02*
X3901134Y-13075984D01*
X3901134Y-12971222D02*
X3910658Y-12952174D01*
X3910658Y-12952174D02*
X3929705Y-12942650D01*
X3929705Y-12942650D02*
X3958277Y-12942650D01*
X3958277Y-12942650D02*
X3977324Y-12952174D01*
X3977324Y-12952174D02*
X3986848Y-12971222D01*
X3986848Y-12971222D02*
X3986848Y-13075984D01*
X4082086Y-13075984D02*
X4082086Y-12942650D01*
X4082086Y-12961698D02*
X4091610Y-12952174D01*
X4091610Y-12952174D02*
X4110658Y-12942650D01*
X4110658Y-12942650D02*
X4139229Y-12942650D01*
X4139229Y-12942650D02*
X4158277Y-12952174D01*
X4158277Y-12952174D02*
X4167801Y-12971222D01*
X4167801Y-12971222D02*
X4167801Y-13075984D01*
X4167801Y-12971222D02*
X4177324Y-12952174D01*
X4177324Y-12952174D02*
X4196372Y-12942650D01*
X4196372Y-12942650D02*
X4224944Y-12942650D01*
X4224944Y-12942650D02*
X4243991Y-12952174D01*
X4243991Y-12952174D02*
X4253515Y-12971222D01*
X4253515Y-12971222D02*
X4253515Y-13075984D01*
X4643991Y-12866460D02*
X4472563Y-13123603D01*
X4901134Y-12875984D02*
X4920182Y-12875984D01*
X4920182Y-12875984D02*
X4939229Y-12885508D01*
X4939229Y-12885508D02*
X4948753Y-12895031D01*
X4948753Y-12895031D02*
X4958277Y-12914079D01*
X4958277Y-12914079D02*
X4967801Y-12952174D01*
X4967801Y-12952174D02*
X4967801Y-12999793D01*
X4967801Y-12999793D02*
X4958277Y-13037888D01*
X4958277Y-13037888D02*
X4948753Y-13056936D01*
X4948753Y-13056936D02*
X4939229Y-13066460D01*
X4939229Y-13066460D02*
X4920182Y-13075984D01*
X4920182Y-13075984D02*
X4901134Y-13075984D01*
X4901134Y-13075984D02*
X4882087Y-13066460D01*
X4882087Y-13066460D02*
X4872563Y-13056936D01*
X4872563Y-13056936D02*
X4863039Y-13037888D01*
X4863039Y-13037888D02*
X4853515Y-12999793D01*
X4853515Y-12999793D02*
X4853515Y-12952174D01*
X4853515Y-12952174D02*
X4863039Y-12914079D01*
X4863039Y-12914079D02*
X4872563Y-12895031D01*
X4872563Y-12895031D02*
X4882087Y-12885508D01*
X4882087Y-12885508D02*
X4901134Y-12875984D01*
X5053515Y-13056936D02*
X5063039Y-13066460D01*
X5063039Y-13066460D02*
X5053515Y-13075984D01*
X5053515Y-13075984D02*
X5043991Y-13066460D01*
X5043991Y-13066460D02*
X5053515Y-13056936D01*
X5053515Y-13056936D02*
X5053515Y-13075984D01*
X5186848Y-12875984D02*
X5205896Y-12875984D01*
X5205896Y-12875984D02*
X5224944Y-12885508D01*
X5224944Y-12885508D02*
X5234468Y-12895031D01*
X5234468Y-12895031D02*
X5243991Y-12914079D01*
X5243991Y-12914079D02*
X5253515Y-12952174D01*
X5253515Y-12952174D02*
X5253515Y-12999793D01*
X5253515Y-12999793D02*
X5243991Y-13037888D01*
X5243991Y-13037888D02*
X5234468Y-13056936D01*
X5234468Y-13056936D02*
X5224944Y-13066460D01*
X5224944Y-13066460D02*
X5205896Y-13075984D01*
X5205896Y-13075984D02*
X5186848Y-13075984D01*
X5186848Y-13075984D02*
X5167801Y-13066460D01*
X5167801Y-13066460D02*
X5158277Y-13056936D01*
X5158277Y-13056936D02*
X5148753Y-13037888D01*
X5148753Y-13037888D02*
X5139229Y-12999793D01*
X5139229Y-12999793D02*
X5139229Y-12952174D01*
X5139229Y-12952174D02*
X5148753Y-12914079D01*
X5148753Y-12914079D02*
X5158277Y-12895031D01*
X5158277Y-12895031D02*
X5167801Y-12885508D01*
X5167801Y-12885508D02*
X5186848Y-12875984D01*
X5434468Y-12875984D02*
X5339229Y-12875984D01*
X5339229Y-12875984D02*
X5329706Y-12971222D01*
X5329706Y-12971222D02*
X5339229Y-12961698D01*
X5339229Y-12961698D02*
X5358277Y-12952174D01*
X5358277Y-12952174D02*
X5405896Y-12952174D01*
X5405896Y-12952174D02*
X5424944Y-12961698D01*
X5424944Y-12961698D02*
X5434468Y-12971222D01*
X5434468Y-12971222D02*
X5443991Y-12990269D01*
X5443991Y-12990269D02*
X5443991Y-13037888D01*
X5443991Y-13037888D02*
X5434468Y-13056936D01*
X5434468Y-13056936D02*
X5424944Y-13066460D01*
X5424944Y-13066460D02*
X5405896Y-13075984D01*
X5405896Y-13075984D02*
X5358277Y-13075984D01*
X5358277Y-13075984D02*
X5339229Y-13066460D01*
X5339229Y-13066460D02*
X5329706Y-13056936D01*
X5624944Y-12875984D02*
X5529706Y-12875984D01*
X5529706Y-12875984D02*
X5520182Y-12971222D01*
X5520182Y-12971222D02*
X5529706Y-12961698D01*
X5529706Y-12961698D02*
X5548753Y-12952174D01*
X5548753Y-12952174D02*
X5596372Y-12952174D01*
X5596372Y-12952174D02*
X5615420Y-12961698D01*
X5615420Y-12961698D02*
X5624944Y-12971222D01*
X5624944Y-12971222D02*
X5634467Y-12990269D01*
X5634467Y-12990269D02*
X5634467Y-13037888D01*
X5634467Y-13037888D02*
X5624944Y-13056936D01*
X5624944Y-13056936D02*
X5615420Y-13066460D01*
X5615420Y-13066460D02*
X5596372Y-13075984D01*
X5596372Y-13075984D02*
X5548753Y-13075984D01*
X5548753Y-13075984D02*
X5529706Y-13066460D01*
X5529706Y-13066460D02*
X5520182Y-13056936D01*
X5824944Y-13075984D02*
X5710658Y-13075984D01*
X5767801Y-13075984D02*
X5767801Y-12875984D01*
X5767801Y-12875984D02*
X5748753Y-12904555D01*
X5748753Y-12904555D02*
X5729706Y-12923603D01*
X5729706Y-12923603D02*
X5710658Y-12933127D01*
X5901134Y-12875984D02*
X5901134Y-12914079D01*
X5977325Y-12875984D02*
X5977325Y-12914079D01*
X6272563Y-13152174D02*
X6263039Y-13142650D01*
X6263039Y-13142650D02*
X6243991Y-13114079D01*
X6243991Y-13114079D02*
X6234468Y-13095031D01*
X6234468Y-13095031D02*
X6224944Y-13066460D01*
X6224944Y-13066460D02*
X6215420Y-13018841D01*
X6215420Y-13018841D02*
X6215420Y-12980746D01*
X6215420Y-12980746D02*
X6224944Y-12933127D01*
X6224944Y-12933127D02*
X6234468Y-12904555D01*
X6234468Y-12904555D02*
X6243991Y-12885508D01*
X6243991Y-12885508D02*
X6263039Y-12856936D01*
X6263039Y-12856936D02*
X6272563Y-12847412D01*
X6339229Y-12895031D02*
X6348753Y-12885508D01*
X6348753Y-12885508D02*
X6367801Y-12875984D01*
X6367801Y-12875984D02*
X6415420Y-12875984D01*
X6415420Y-12875984D02*
X6434468Y-12885508D01*
X6434468Y-12885508D02*
X6443991Y-12895031D01*
X6443991Y-12895031D02*
X6453515Y-12914079D01*
X6453515Y-12914079D02*
X6453515Y-12933127D01*
X6453515Y-12933127D02*
X6443991Y-12961698D01*
X6443991Y-12961698D02*
X6329706Y-13075984D01*
X6329706Y-13075984D02*
X6453515Y-13075984D01*
X6691610Y-13075984D02*
X6691610Y-12875984D01*
X6777325Y-13075984D02*
X6777325Y-12971222D01*
X6777325Y-12971222D02*
X6767801Y-12952174D01*
X6767801Y-12952174D02*
X6748753Y-12942650D01*
X6748753Y-12942650D02*
X6720182Y-12942650D01*
X6720182Y-12942650D02*
X6701134Y-12952174D01*
X6701134Y-12952174D02*
X6691610Y-12961698D01*
X6901134Y-13075984D02*
X6882087Y-13066460D01*
X6882087Y-13066460D02*
X6872563Y-13056936D01*
X6872563Y-13056936D02*
X6863039Y-13037888D01*
X6863039Y-13037888D02*
X6863039Y-12980746D01*
X6863039Y-12980746D02*
X6872563Y-12961698D01*
X6872563Y-12961698D02*
X6882087Y-12952174D01*
X6882087Y-12952174D02*
X6901134Y-12942650D01*
X6901134Y-12942650D02*
X6929706Y-12942650D01*
X6929706Y-12942650D02*
X6948753Y-12952174D01*
X6948753Y-12952174D02*
X6958277Y-12961698D01*
X6958277Y-12961698D02*
X6967801Y-12980746D01*
X6967801Y-12980746D02*
X6967801Y-13037888D01*
X6967801Y-13037888D02*
X6958277Y-13056936D01*
X6958277Y-13056936D02*
X6948753Y-13066460D01*
X6948753Y-13066460D02*
X6929706Y-13075984D01*
X6929706Y-13075984D02*
X6901134Y-13075984D01*
X7082087Y-13075984D02*
X7063039Y-13066460D01*
X7063039Y-13066460D02*
X7053515Y-13047412D01*
X7053515Y-13047412D02*
X7053515Y-12875984D01*
X7234468Y-13066460D02*
X7215420Y-13075984D01*
X7215420Y-13075984D02*
X7177325Y-13075984D01*
X7177325Y-13075984D02*
X7158277Y-13066460D01*
X7158277Y-13066460D02*
X7148753Y-13047412D01*
X7148753Y-13047412D02*
X7148753Y-12971222D01*
X7148753Y-12971222D02*
X7158277Y-12952174D01*
X7158277Y-12952174D02*
X7177325Y-12942650D01*
X7177325Y-12942650D02*
X7215420Y-12942650D01*
X7215420Y-12942650D02*
X7234468Y-12952174D01*
X7234468Y-12952174D02*
X7243991Y-12971222D01*
X7243991Y-12971222D02*
X7243991Y-12990269D01*
X7243991Y-12990269D02*
X7148753Y-13009317D01*
X7320182Y-13066460D02*
X7339230Y-13075984D01*
X7339230Y-13075984D02*
X7377325Y-13075984D01*
X7377325Y-13075984D02*
X7396372Y-13066460D01*
X7396372Y-13066460D02*
X7405896Y-13047412D01*
X7405896Y-13047412D02*
X7405896Y-13037888D01*
X7405896Y-13037888D02*
X7396372Y-13018841D01*
X7396372Y-13018841D02*
X7377325Y-13009317D01*
X7377325Y-13009317D02*
X7348753Y-13009317D01*
X7348753Y-13009317D02*
X7329706Y-12999793D01*
X7329706Y-12999793D02*
X7320182Y-12980746D01*
X7320182Y-12980746D02*
X7320182Y-12971222D01*
X7320182Y-12971222D02*
X7329706Y-12952174D01*
X7329706Y-12952174D02*
X7348753Y-12942650D01*
X7348753Y-12942650D02*
X7377325Y-12942650D01*
X7377325Y-12942650D02*
X7396372Y-12952174D01*
X7472563Y-13152174D02*
X7482087Y-13142650D01*
X7482087Y-13142650D02*
X7501134Y-13114079D01*
X7501134Y-13114079D02*
X7510658Y-13095031D01*
X7510658Y-13095031D02*
X7520182Y-13066460D01*
X7520182Y-13066460D02*
X7529706Y-13018841D01*
X7529706Y-13018841D02*
X7529706Y-12980746D01*
X7529706Y-12980746D02*
X7520182Y-12933127D01*
X7520182Y-12933127D02*
X7510658Y-12904555D01*
X7510658Y-12904555D02*
X7501134Y-12885508D01*
X7501134Y-12885508D02*
X7482087Y-12856936D01*
X7482087Y-12856936D02*
X7472563Y-12847412D01*
M02*
