%TF.GenerationSoftware,KiCad,Pcbnew,8.0.5*%
%TF.CreationDate,2024-09-28T21:24:17+05:30*%
%TF.ProjectId,555 DICE,35353520-4449-4434-952e-6b696361645f,rev?*%
%TF.SameCoordinates,Original*%
%TF.FileFunction,Drillmap*%
%TF.FilePolarity,Positive*%
%FSLAX45Y45*%
G04 Gerber Fmt 4.5, Leading zero omitted, Abs format (unit mm)*
G04 Created by KiCad (PCBNEW 8.0.5) date 2024-09-28 21:24:17*
%MOMM*%
%LPD*%
G01*
G04 APERTURE LIST*
%ADD10C,0.050000*%
%ADD11C,0.200000*%
G04 APERTURE END LIST*
D10*
X2700000Y-4450000D02*
X11400000Y-4450000D01*
X11400000Y-11550000D01*
X2700000Y-11550000D01*
X2700000Y-4450000D01*
D11*
X2958277Y-11863984D02*
X2958277Y-11663984D01*
X2958277Y-11663984D02*
X3005896Y-11663984D01*
X3005896Y-11663984D02*
X3034467Y-11673508D01*
X3034467Y-11673508D02*
X3053515Y-11692555D01*
X3053515Y-11692555D02*
X3063039Y-11711603D01*
X3063039Y-11711603D02*
X3072562Y-11749698D01*
X3072562Y-11749698D02*
X3072562Y-11778269D01*
X3072562Y-11778269D02*
X3063039Y-11816365D01*
X3063039Y-11816365D02*
X3053515Y-11835412D01*
X3053515Y-11835412D02*
X3034467Y-11854460D01*
X3034467Y-11854460D02*
X3005896Y-11863984D01*
X3005896Y-11863984D02*
X2958277Y-11863984D01*
X3158277Y-11863984D02*
X3158277Y-11730650D01*
X3158277Y-11768746D02*
X3167801Y-11749698D01*
X3167801Y-11749698D02*
X3177324Y-11740174D01*
X3177324Y-11740174D02*
X3196372Y-11730650D01*
X3196372Y-11730650D02*
X3215420Y-11730650D01*
X3282086Y-11863984D02*
X3282086Y-11730650D01*
X3282086Y-11663984D02*
X3272562Y-11673508D01*
X3272562Y-11673508D02*
X3282086Y-11683031D01*
X3282086Y-11683031D02*
X3291610Y-11673508D01*
X3291610Y-11673508D02*
X3282086Y-11663984D01*
X3282086Y-11663984D02*
X3282086Y-11683031D01*
X3405896Y-11863984D02*
X3386848Y-11854460D01*
X3386848Y-11854460D02*
X3377324Y-11835412D01*
X3377324Y-11835412D02*
X3377324Y-11663984D01*
X3510658Y-11863984D02*
X3491610Y-11854460D01*
X3491610Y-11854460D02*
X3482086Y-11835412D01*
X3482086Y-11835412D02*
X3482086Y-11663984D01*
X3739229Y-11863984D02*
X3739229Y-11663984D01*
X3739229Y-11663984D02*
X3805896Y-11806841D01*
X3805896Y-11806841D02*
X3872562Y-11663984D01*
X3872562Y-11663984D02*
X3872562Y-11863984D01*
X4053515Y-11863984D02*
X4053515Y-11759222D01*
X4053515Y-11759222D02*
X4043991Y-11740174D01*
X4043991Y-11740174D02*
X4024943Y-11730650D01*
X4024943Y-11730650D02*
X3986848Y-11730650D01*
X3986848Y-11730650D02*
X3967801Y-11740174D01*
X4053515Y-11854460D02*
X4034467Y-11863984D01*
X4034467Y-11863984D02*
X3986848Y-11863984D01*
X3986848Y-11863984D02*
X3967801Y-11854460D01*
X3967801Y-11854460D02*
X3958277Y-11835412D01*
X3958277Y-11835412D02*
X3958277Y-11816365D01*
X3958277Y-11816365D02*
X3967801Y-11797317D01*
X3967801Y-11797317D02*
X3986848Y-11787793D01*
X3986848Y-11787793D02*
X4034467Y-11787793D01*
X4034467Y-11787793D02*
X4053515Y-11778269D01*
X4148753Y-11730650D02*
X4148753Y-11930650D01*
X4148753Y-11740174D02*
X4167801Y-11730650D01*
X4167801Y-11730650D02*
X4205896Y-11730650D01*
X4205896Y-11730650D02*
X4224944Y-11740174D01*
X4224944Y-11740174D02*
X4234467Y-11749698D01*
X4234467Y-11749698D02*
X4243991Y-11768746D01*
X4243991Y-11768746D02*
X4243991Y-11825888D01*
X4243991Y-11825888D02*
X4234467Y-11844936D01*
X4234467Y-11844936D02*
X4224944Y-11854460D01*
X4224944Y-11854460D02*
X4205896Y-11863984D01*
X4205896Y-11863984D02*
X4167801Y-11863984D01*
X4167801Y-11863984D02*
X4148753Y-11854460D01*
X4329705Y-11844936D02*
X4339229Y-11854460D01*
X4339229Y-11854460D02*
X4329705Y-11863984D01*
X4329705Y-11863984D02*
X4320182Y-11854460D01*
X4320182Y-11854460D02*
X4329705Y-11844936D01*
X4329705Y-11844936D02*
X4329705Y-11863984D01*
X4329705Y-11740174D02*
X4339229Y-11749698D01*
X4339229Y-11749698D02*
X4329705Y-11759222D01*
X4329705Y-11759222D02*
X4320182Y-11749698D01*
X4320182Y-11749698D02*
X4329705Y-11740174D01*
X4329705Y-11740174D02*
X4329705Y-11759222D01*
M02*
